G04 #@! TF.GenerationSoftware,KiCad,Pcbnew,5.1.4-e60b266~84~ubuntu18.04.1*
G04 #@! TF.CreationDate,2019-10-22T14:27:34+02:00*
G04 #@! TF.ProjectId,bug,6275672e-6b69-4636-9164-5f7063625858,rev?*
G04 #@! TF.SameCoordinates,PX2faf080PY2faf080*
G04 #@! TF.FileFunction,Soldermask,Top*
G04 #@! TF.FilePolarity,Negative*
%FSLAX46Y46*%
G04 Gerber Fmt 4.6, Leading zero omitted, Abs format (unit mm)*
G04 Created by KiCad (PCBNEW 5.1.4-e60b266~84~ubuntu18.04.1) date 2019-10-22 14:27:34*
%MOMM*%
%LPD*%
G04 APERTURE LIST*
%ADD10C,0.600000*%
%ADD11C,0.500000*%
%ADD12C,0.100000*%
G04 APERTURE END LIST*
D10*
X28050000Y-18750000D02*
G75*
G03X28050000Y-18750000I-300000J0D01*
G01*
X25510000Y-18750000D02*
G75*
G03X25510000Y-18750000I-300000J0D01*
G01*
D11*
X26000000Y-7000000D02*
G75*
G03X26000000Y-7000000I-250000J0D01*
G01*
X23500000Y-7000000D02*
G75*
G03X23500000Y-7000000I-250000J0D01*
G01*
D12*
G36*
X20235000Y-29235000D02*
G01*
X18765000Y-29235000D01*
X18765000Y-27765000D01*
X20235000Y-27765000D01*
X20235000Y-29235000D01*
X20235000Y-29235000D01*
G37*
G36*
X22583634Y-27855401D02*
G01*
X22634001Y-27870680D01*
X22680427Y-27895495D01*
X22721115Y-27928885D01*
X22754505Y-27969573D01*
X22779320Y-28015999D01*
X22794599Y-28066366D01*
X22800000Y-28121204D01*
X22800000Y-28753796D01*
X22794599Y-28808634D01*
X22779320Y-28859001D01*
X22754505Y-28905427D01*
X22721115Y-28946115D01*
X22680427Y-28979505D01*
X22634001Y-29004320D01*
X22583634Y-29019599D01*
X22528796Y-29025000D01*
X21471204Y-29025000D01*
X21416366Y-29019599D01*
X21365999Y-29004320D01*
X21319573Y-28979505D01*
X21278885Y-28946115D01*
X21245495Y-28905427D01*
X21220680Y-28859001D01*
X21205401Y-28808634D01*
X21200000Y-28753796D01*
X21200000Y-28121204D01*
X21205401Y-28066366D01*
X21220680Y-28015999D01*
X21245495Y-27969573D01*
X21278885Y-27928885D01*
X21319573Y-27895495D01*
X21365999Y-27870680D01*
X21416366Y-27855401D01*
X21471204Y-27850000D01*
X22528796Y-27850000D01*
X22583634Y-27855401D01*
X22583634Y-27855401D01*
G37*
G36*
X17583634Y-27855401D02*
G01*
X17634001Y-27870680D01*
X17680427Y-27895495D01*
X17721115Y-27928885D01*
X17754505Y-27969573D01*
X17779320Y-28015999D01*
X17794599Y-28066366D01*
X17800000Y-28121204D01*
X17800000Y-28753796D01*
X17794599Y-28808634D01*
X17779320Y-28859001D01*
X17754505Y-28905427D01*
X17721115Y-28946115D01*
X17680427Y-28979505D01*
X17634001Y-29004320D01*
X17583634Y-29019599D01*
X17528796Y-29025000D01*
X16471204Y-29025000D01*
X16416366Y-29019599D01*
X16365999Y-29004320D01*
X16319573Y-28979505D01*
X16278885Y-28946115D01*
X16245495Y-28905427D01*
X16220680Y-28859001D01*
X16205401Y-28808634D01*
X16200000Y-28753796D01*
X16200000Y-28121204D01*
X16205401Y-28066366D01*
X16220680Y-28015999D01*
X16245495Y-27969573D01*
X16278885Y-27928885D01*
X16319573Y-27895495D01*
X16365999Y-27870680D01*
X16416366Y-27855401D01*
X16471204Y-27850000D01*
X17528796Y-27850000D01*
X17583634Y-27855401D01*
X17583634Y-27855401D01*
G37*
G36*
X4333634Y-26855401D02*
G01*
X4384001Y-26870680D01*
X4430427Y-26895495D01*
X4471115Y-26928885D01*
X4504505Y-26969573D01*
X4529320Y-27015999D01*
X4544599Y-27066366D01*
X4550000Y-27121204D01*
X4550000Y-27753796D01*
X4544599Y-27808634D01*
X4529320Y-27859001D01*
X4504505Y-27905427D01*
X4471115Y-27946115D01*
X4430427Y-27979505D01*
X4384001Y-28004320D01*
X4333634Y-28019599D01*
X4278796Y-28025000D01*
X3221204Y-28025000D01*
X3166366Y-28019599D01*
X3115999Y-28004320D01*
X3069573Y-27979505D01*
X3028885Y-27946115D01*
X2995495Y-27905427D01*
X2970680Y-27859001D01*
X2955401Y-27808634D01*
X2950000Y-27753796D01*
X2950000Y-27121204D01*
X2955401Y-27066366D01*
X2970680Y-27015999D01*
X2995495Y-26969573D01*
X3028885Y-26928885D01*
X3069573Y-26895495D01*
X3115999Y-26870680D01*
X3166366Y-26855401D01*
X3221204Y-26850000D01*
X4278796Y-26850000D01*
X4333634Y-26855401D01*
X4333634Y-26855401D01*
G37*
G36*
X10583634Y-26855401D02*
G01*
X10634001Y-26870680D01*
X10680427Y-26895495D01*
X10721115Y-26928885D01*
X10754505Y-26969573D01*
X10779320Y-27015999D01*
X10794599Y-27066366D01*
X10800000Y-27121204D01*
X10800000Y-27753796D01*
X10794599Y-27808634D01*
X10779320Y-27859001D01*
X10754505Y-27905427D01*
X10721115Y-27946115D01*
X10680427Y-27979505D01*
X10634001Y-28004320D01*
X10583634Y-28019599D01*
X10528796Y-28025000D01*
X9471204Y-28025000D01*
X9416366Y-28019599D01*
X9365999Y-28004320D01*
X9319573Y-27979505D01*
X9278885Y-27946115D01*
X9245495Y-27905427D01*
X9220680Y-27859001D01*
X9205401Y-27808634D01*
X9200000Y-27753796D01*
X9200000Y-27121204D01*
X9205401Y-27066366D01*
X9220680Y-27015999D01*
X9245495Y-26969573D01*
X9278885Y-26928885D01*
X9319573Y-26895495D01*
X9365999Y-26870680D01*
X9416366Y-26855401D01*
X9471204Y-26850000D01*
X10528796Y-26850000D01*
X10583634Y-26855401D01*
X10583634Y-26855401D01*
G37*
G36*
X17583634Y-25980401D02*
G01*
X17634001Y-25995680D01*
X17680427Y-26020495D01*
X17721115Y-26053885D01*
X17754505Y-26094573D01*
X17779320Y-26140999D01*
X17794599Y-26191366D01*
X17800000Y-26246204D01*
X17800000Y-26878796D01*
X17794599Y-26933634D01*
X17779320Y-26984001D01*
X17754505Y-27030427D01*
X17721115Y-27071115D01*
X17680427Y-27104505D01*
X17634001Y-27129320D01*
X17583634Y-27144599D01*
X17528796Y-27150000D01*
X16471204Y-27150000D01*
X16416366Y-27144599D01*
X16365999Y-27129320D01*
X16319573Y-27104505D01*
X16278885Y-27071115D01*
X16245495Y-27030427D01*
X16220680Y-26984001D01*
X16205401Y-26933634D01*
X16200000Y-26878796D01*
X16200000Y-26246204D01*
X16205401Y-26191366D01*
X16220680Y-26140999D01*
X16245495Y-26094573D01*
X16278885Y-26053885D01*
X16319573Y-26020495D01*
X16365999Y-25995680D01*
X16416366Y-25980401D01*
X16471204Y-25975000D01*
X17528796Y-25975000D01*
X17583634Y-25980401D01*
X17583634Y-25980401D01*
G37*
G36*
X22583634Y-25980401D02*
G01*
X22634001Y-25995680D01*
X22680427Y-26020495D01*
X22721115Y-26053885D01*
X22754505Y-26094573D01*
X22779320Y-26140999D01*
X22794599Y-26191366D01*
X22800000Y-26246204D01*
X22800000Y-26878796D01*
X22794599Y-26933634D01*
X22779320Y-26984001D01*
X22754505Y-27030427D01*
X22721115Y-27071115D01*
X22680427Y-27104505D01*
X22634001Y-27129320D01*
X22583634Y-27144599D01*
X22528796Y-27150000D01*
X21471204Y-27150000D01*
X21416366Y-27144599D01*
X21365999Y-27129320D01*
X21319573Y-27104505D01*
X21278885Y-27071115D01*
X21245495Y-27030427D01*
X21220680Y-26984001D01*
X21205401Y-26933634D01*
X21200000Y-26878796D01*
X21200000Y-26246204D01*
X21205401Y-26191366D01*
X21220680Y-26140999D01*
X21245495Y-26094573D01*
X21278885Y-26053885D01*
X21319573Y-26020495D01*
X21365999Y-25995680D01*
X21416366Y-25980401D01*
X21471204Y-25975000D01*
X22528796Y-25975000D01*
X22583634Y-25980401D01*
X22583634Y-25980401D01*
G37*
G36*
X10583634Y-24980401D02*
G01*
X10634001Y-24995680D01*
X10680427Y-25020495D01*
X10721115Y-25053885D01*
X10754505Y-25094573D01*
X10779320Y-25140999D01*
X10794599Y-25191366D01*
X10800000Y-25246204D01*
X10800000Y-25878796D01*
X10794599Y-25933634D01*
X10779320Y-25984001D01*
X10754505Y-26030427D01*
X10721115Y-26071115D01*
X10680427Y-26104505D01*
X10634001Y-26129320D01*
X10583634Y-26144599D01*
X10528796Y-26150000D01*
X9471204Y-26150000D01*
X9416366Y-26144599D01*
X9365999Y-26129320D01*
X9319573Y-26104505D01*
X9278885Y-26071115D01*
X9245495Y-26030427D01*
X9220680Y-25984001D01*
X9205401Y-25933634D01*
X9200000Y-25878796D01*
X9200000Y-25246204D01*
X9205401Y-25191366D01*
X9220680Y-25140999D01*
X9245495Y-25094573D01*
X9278885Y-25053885D01*
X9319573Y-25020495D01*
X9365999Y-24995680D01*
X9416366Y-24980401D01*
X9471204Y-24975000D01*
X10528796Y-24975000D01*
X10583634Y-24980401D01*
X10583634Y-24980401D01*
G37*
G36*
X4333634Y-24980401D02*
G01*
X4384001Y-24995680D01*
X4430427Y-25020495D01*
X4471115Y-25053885D01*
X4504505Y-25094573D01*
X4529320Y-25140999D01*
X4544599Y-25191366D01*
X4550000Y-25246204D01*
X4550000Y-25878796D01*
X4544599Y-25933634D01*
X4529320Y-25984001D01*
X4504505Y-26030427D01*
X4471115Y-26071115D01*
X4430427Y-26104505D01*
X4384001Y-26129320D01*
X4333634Y-26144599D01*
X4278796Y-26150000D01*
X3221204Y-26150000D01*
X3166366Y-26144599D01*
X3115999Y-26129320D01*
X3069573Y-26104505D01*
X3028885Y-26071115D01*
X2995495Y-26030427D01*
X2970680Y-25984001D01*
X2955401Y-25933634D01*
X2950000Y-25878796D01*
X2950000Y-25246204D01*
X2955401Y-25191366D01*
X2970680Y-25140999D01*
X2995495Y-25094573D01*
X3028885Y-25053885D01*
X3069573Y-25020495D01*
X3115999Y-24995680D01*
X3166366Y-24980401D01*
X3221204Y-24975000D01*
X4278796Y-24975000D01*
X4333634Y-24980401D01*
X4333634Y-24980401D01*
G37*
G36*
X22808634Y-23705401D02*
G01*
X22859001Y-23720680D01*
X22905427Y-23745495D01*
X22946115Y-23778885D01*
X22979505Y-23819573D01*
X23004320Y-23865999D01*
X23019599Y-23916366D01*
X23025000Y-23971204D01*
X23025000Y-25028796D01*
X23019599Y-25083634D01*
X23004320Y-25134001D01*
X22979505Y-25180427D01*
X22946115Y-25221115D01*
X22905427Y-25254505D01*
X22859001Y-25279320D01*
X22808634Y-25294599D01*
X22753796Y-25300000D01*
X22121204Y-25300000D01*
X22066366Y-25294599D01*
X22015999Y-25279320D01*
X21969573Y-25254505D01*
X21928885Y-25221115D01*
X21895495Y-25180427D01*
X21870680Y-25134001D01*
X21855401Y-25083634D01*
X21850000Y-25028796D01*
X21850000Y-23971204D01*
X21855401Y-23916366D01*
X21870680Y-23865999D01*
X21895495Y-23819573D01*
X21928885Y-23778885D01*
X21969573Y-23745495D01*
X22015999Y-23720680D01*
X22066366Y-23705401D01*
X22121204Y-23700000D01*
X22753796Y-23700000D01*
X22808634Y-23705401D01*
X22808634Y-23705401D01*
G37*
G36*
X20933634Y-23705401D02*
G01*
X20984001Y-23720680D01*
X21030427Y-23745495D01*
X21071115Y-23778885D01*
X21104505Y-23819573D01*
X21129320Y-23865999D01*
X21144599Y-23916366D01*
X21150000Y-23971204D01*
X21150000Y-25028796D01*
X21144599Y-25083634D01*
X21129320Y-25134001D01*
X21104505Y-25180427D01*
X21071115Y-25221115D01*
X21030427Y-25254505D01*
X20984001Y-25279320D01*
X20933634Y-25294599D01*
X20878796Y-25300000D01*
X20246204Y-25300000D01*
X20191366Y-25294599D01*
X20140999Y-25279320D01*
X20094573Y-25254505D01*
X20053885Y-25221115D01*
X20020495Y-25180427D01*
X19995680Y-25134001D01*
X19980401Y-25083634D01*
X19975000Y-25028796D01*
X19975000Y-23971204D01*
X19980401Y-23916366D01*
X19995680Y-23865999D01*
X20020495Y-23819573D01*
X20053885Y-23778885D01*
X20094573Y-23745495D01*
X20140999Y-23720680D01*
X20191366Y-23705401D01*
X20246204Y-23700000D01*
X20878796Y-23700000D01*
X20933634Y-23705401D01*
X20933634Y-23705401D01*
G37*
G36*
X18808634Y-23705401D02*
G01*
X18859001Y-23720680D01*
X18905427Y-23745495D01*
X18946115Y-23778885D01*
X18979505Y-23819573D01*
X19004320Y-23865999D01*
X19019599Y-23916366D01*
X19025000Y-23971204D01*
X19025000Y-25028796D01*
X19019599Y-25083634D01*
X19004320Y-25134001D01*
X18979505Y-25180427D01*
X18946115Y-25221115D01*
X18905427Y-25254505D01*
X18859001Y-25279320D01*
X18808634Y-25294599D01*
X18753796Y-25300000D01*
X18121204Y-25300000D01*
X18066366Y-25294599D01*
X18015999Y-25279320D01*
X17969573Y-25254505D01*
X17928885Y-25221115D01*
X17895495Y-25180427D01*
X17870680Y-25134001D01*
X17855401Y-25083634D01*
X17850000Y-25028796D01*
X17850000Y-23971204D01*
X17855401Y-23916366D01*
X17870680Y-23865999D01*
X17895495Y-23819573D01*
X17928885Y-23778885D01*
X17969573Y-23745495D01*
X18015999Y-23720680D01*
X18066366Y-23705401D01*
X18121204Y-23700000D01*
X18753796Y-23700000D01*
X18808634Y-23705401D01*
X18808634Y-23705401D01*
G37*
G36*
X16933634Y-23705401D02*
G01*
X16984001Y-23720680D01*
X17030427Y-23745495D01*
X17071115Y-23778885D01*
X17104505Y-23819573D01*
X17129320Y-23865999D01*
X17144599Y-23916366D01*
X17150000Y-23971204D01*
X17150000Y-25028796D01*
X17144599Y-25083634D01*
X17129320Y-25134001D01*
X17104505Y-25180427D01*
X17071115Y-25221115D01*
X17030427Y-25254505D01*
X16984001Y-25279320D01*
X16933634Y-25294599D01*
X16878796Y-25300000D01*
X16246204Y-25300000D01*
X16191366Y-25294599D01*
X16140999Y-25279320D01*
X16094573Y-25254505D01*
X16053885Y-25221115D01*
X16020495Y-25180427D01*
X15995680Y-25134001D01*
X15980401Y-25083634D01*
X15975000Y-25028796D01*
X15975000Y-23971204D01*
X15980401Y-23916366D01*
X15995680Y-23865999D01*
X16020495Y-23819573D01*
X16053885Y-23778885D01*
X16094573Y-23745495D01*
X16140999Y-23720680D01*
X16191366Y-23705401D01*
X16246204Y-23700000D01*
X16878796Y-23700000D01*
X16933634Y-23705401D01*
X16933634Y-23705401D01*
G37*
G36*
X6380000Y-25125000D02*
G01*
X5120000Y-25125000D01*
X5120000Y-24275000D01*
X6380000Y-24275000D01*
X6380000Y-25125000D01*
X6380000Y-25125000D01*
G37*
G36*
X8580000Y-25125000D02*
G01*
X7320000Y-25125000D01*
X7320000Y-24275000D01*
X8580000Y-24275000D01*
X8580000Y-25125000D01*
X8580000Y-25125000D01*
G37*
G36*
X12058634Y-22955401D02*
G01*
X12109001Y-22970680D01*
X12155427Y-22995495D01*
X12196115Y-23028885D01*
X12229505Y-23069573D01*
X12254320Y-23115999D01*
X12269599Y-23166366D01*
X12275000Y-23221204D01*
X12275000Y-24278796D01*
X12269599Y-24333634D01*
X12254320Y-24384001D01*
X12229505Y-24430427D01*
X12196115Y-24471115D01*
X12155427Y-24504505D01*
X12109001Y-24529320D01*
X12058634Y-24544599D01*
X12003796Y-24550000D01*
X11371204Y-24550000D01*
X11316366Y-24544599D01*
X11265999Y-24529320D01*
X11219573Y-24504505D01*
X11178885Y-24471115D01*
X11145495Y-24430427D01*
X11120680Y-24384001D01*
X11105401Y-24333634D01*
X11100000Y-24278796D01*
X11100000Y-23221204D01*
X11105401Y-23166366D01*
X11120680Y-23115999D01*
X11145495Y-23069573D01*
X11178885Y-23028885D01*
X11219573Y-22995495D01*
X11265999Y-22970680D01*
X11316366Y-22955401D01*
X11371204Y-22950000D01*
X12003796Y-22950000D01*
X12058634Y-22955401D01*
X12058634Y-22955401D01*
G37*
G36*
X10183634Y-22955401D02*
G01*
X10234001Y-22970680D01*
X10280427Y-22995495D01*
X10321115Y-23028885D01*
X10354505Y-23069573D01*
X10379320Y-23115999D01*
X10394599Y-23166366D01*
X10400000Y-23221204D01*
X10400000Y-24278796D01*
X10394599Y-24333634D01*
X10379320Y-24384001D01*
X10354505Y-24430427D01*
X10321115Y-24471115D01*
X10280427Y-24504505D01*
X10234001Y-24529320D01*
X10183634Y-24544599D01*
X10128796Y-24550000D01*
X9496204Y-24550000D01*
X9441366Y-24544599D01*
X9390999Y-24529320D01*
X9344573Y-24504505D01*
X9303885Y-24471115D01*
X9270495Y-24430427D01*
X9245680Y-24384001D01*
X9230401Y-24333634D01*
X9225000Y-24278796D01*
X9225000Y-23221204D01*
X9230401Y-23166366D01*
X9245680Y-23115999D01*
X9270495Y-23069573D01*
X9303885Y-23028885D01*
X9344573Y-22995495D01*
X9390999Y-22970680D01*
X9441366Y-22955401D01*
X9496204Y-22950000D01*
X10128796Y-22950000D01*
X10183634Y-22955401D01*
X10183634Y-22955401D01*
G37*
G36*
X6380000Y-24175000D02*
G01*
X5120000Y-24175000D01*
X5120000Y-23325000D01*
X6380000Y-23325000D01*
X6380000Y-24175000D01*
X6380000Y-24175000D01*
G37*
G36*
X8580000Y-24175000D02*
G01*
X7320000Y-24175000D01*
X7320000Y-23325000D01*
X8580000Y-23325000D01*
X8580000Y-24175000D01*
X8580000Y-24175000D01*
G37*
G36*
X15083634Y-22355401D02*
G01*
X15134001Y-22370680D01*
X15180427Y-22395495D01*
X15221115Y-22428885D01*
X15254505Y-22469573D01*
X15279320Y-22515999D01*
X15294599Y-22566366D01*
X15300000Y-22621204D01*
X15300000Y-23253796D01*
X15294599Y-23308634D01*
X15279320Y-23359001D01*
X15254505Y-23405427D01*
X15221115Y-23446115D01*
X15180427Y-23479505D01*
X15134001Y-23504320D01*
X15083634Y-23519599D01*
X15028796Y-23525000D01*
X13971204Y-23525000D01*
X13916366Y-23519599D01*
X13865999Y-23504320D01*
X13819573Y-23479505D01*
X13778885Y-23446115D01*
X13745495Y-23405427D01*
X13720680Y-23359001D01*
X13705401Y-23308634D01*
X13700000Y-23253796D01*
X13700000Y-22621204D01*
X13705401Y-22566366D01*
X13720680Y-22515999D01*
X13745495Y-22469573D01*
X13778885Y-22428885D01*
X13819573Y-22395495D01*
X13865999Y-22370680D01*
X13916366Y-22355401D01*
X13971204Y-22350000D01*
X15028796Y-22350000D01*
X15083634Y-22355401D01*
X15083634Y-22355401D01*
G37*
G36*
X16933634Y-21705401D02*
G01*
X16984001Y-21720680D01*
X17030427Y-21745495D01*
X17071115Y-21778885D01*
X17104505Y-21819573D01*
X17129320Y-21865999D01*
X17144599Y-21916366D01*
X17150000Y-21971204D01*
X17150000Y-23028796D01*
X17144599Y-23083634D01*
X17129320Y-23134001D01*
X17104505Y-23180427D01*
X17071115Y-23221115D01*
X17030427Y-23254505D01*
X16984001Y-23279320D01*
X16933634Y-23294599D01*
X16878796Y-23300000D01*
X16246204Y-23300000D01*
X16191366Y-23294599D01*
X16140999Y-23279320D01*
X16094573Y-23254505D01*
X16053885Y-23221115D01*
X16020495Y-23180427D01*
X15995680Y-23134001D01*
X15980401Y-23083634D01*
X15975000Y-23028796D01*
X15975000Y-21971204D01*
X15980401Y-21916366D01*
X15995680Y-21865999D01*
X16020495Y-21819573D01*
X16053885Y-21778885D01*
X16094573Y-21745495D01*
X16140999Y-21720680D01*
X16191366Y-21705401D01*
X16246204Y-21700000D01*
X16878796Y-21700000D01*
X16933634Y-21705401D01*
X16933634Y-21705401D01*
G37*
G36*
X18808634Y-21705401D02*
G01*
X18859001Y-21720680D01*
X18905427Y-21745495D01*
X18946115Y-21778885D01*
X18979505Y-21819573D01*
X19004320Y-21865999D01*
X19019599Y-21916366D01*
X19025000Y-21971204D01*
X19025000Y-23028796D01*
X19019599Y-23083634D01*
X19004320Y-23134001D01*
X18979505Y-23180427D01*
X18946115Y-23221115D01*
X18905427Y-23254505D01*
X18859001Y-23279320D01*
X18808634Y-23294599D01*
X18753796Y-23300000D01*
X18121204Y-23300000D01*
X18066366Y-23294599D01*
X18015999Y-23279320D01*
X17969573Y-23254505D01*
X17928885Y-23221115D01*
X17895495Y-23180427D01*
X17870680Y-23134001D01*
X17855401Y-23083634D01*
X17850000Y-23028796D01*
X17850000Y-21971204D01*
X17855401Y-21916366D01*
X17870680Y-21865999D01*
X17895495Y-21819573D01*
X17928885Y-21778885D01*
X17969573Y-21745495D01*
X18015999Y-21720680D01*
X18066366Y-21705401D01*
X18121204Y-21700000D01*
X18753796Y-21700000D01*
X18808634Y-21705401D01*
X18808634Y-21705401D01*
G37*
G36*
X6380000Y-23225000D02*
G01*
X5120000Y-23225000D01*
X5120000Y-22375000D01*
X6380000Y-22375000D01*
X6380000Y-23225000D01*
X6380000Y-23225000D01*
G37*
G36*
X8580000Y-23225000D02*
G01*
X7320000Y-23225000D01*
X7320000Y-22375000D01*
X8580000Y-22375000D01*
X8580000Y-23225000D01*
X8580000Y-23225000D01*
G37*
G36*
X22833634Y-21855401D02*
G01*
X22884001Y-21870680D01*
X22930427Y-21895495D01*
X22971115Y-21928885D01*
X23004505Y-21969573D01*
X23029320Y-22015999D01*
X23044599Y-22066366D01*
X23050000Y-22121204D01*
X23050000Y-22753796D01*
X23044599Y-22808634D01*
X23029320Y-22859001D01*
X23004505Y-22905427D01*
X22971115Y-22946115D01*
X22930427Y-22979505D01*
X22884001Y-23004320D01*
X22833634Y-23019599D01*
X22778796Y-23025000D01*
X21721204Y-23025000D01*
X21666366Y-23019599D01*
X21615999Y-23004320D01*
X21569573Y-22979505D01*
X21528885Y-22946115D01*
X21495495Y-22905427D01*
X21470680Y-22859001D01*
X21455401Y-22808634D01*
X21450000Y-22753796D01*
X21450000Y-22121204D01*
X21455401Y-22066366D01*
X21470680Y-22015999D01*
X21495495Y-21969573D01*
X21528885Y-21928885D01*
X21569573Y-21895495D01*
X21615999Y-21870680D01*
X21666366Y-21855401D01*
X21721204Y-21850000D01*
X22778796Y-21850000D01*
X22833634Y-21855401D01*
X22833634Y-21855401D01*
G37*
G36*
X10583634Y-21105401D02*
G01*
X10634001Y-21120680D01*
X10680427Y-21145495D01*
X10721115Y-21178885D01*
X10754505Y-21219573D01*
X10779320Y-21265999D01*
X10794599Y-21316366D01*
X10800000Y-21371204D01*
X10800000Y-22003796D01*
X10794599Y-22058634D01*
X10779320Y-22109001D01*
X10754505Y-22155427D01*
X10721115Y-22196115D01*
X10680427Y-22229505D01*
X10634001Y-22254320D01*
X10583634Y-22269599D01*
X10528796Y-22275000D01*
X9471204Y-22275000D01*
X9416366Y-22269599D01*
X9365999Y-22254320D01*
X9319573Y-22229505D01*
X9278885Y-22196115D01*
X9245495Y-22155427D01*
X9220680Y-22109001D01*
X9205401Y-22058634D01*
X9200000Y-22003796D01*
X9200000Y-21371204D01*
X9205401Y-21316366D01*
X9220680Y-21265999D01*
X9245495Y-21219573D01*
X9278885Y-21178885D01*
X9319573Y-21145495D01*
X9365999Y-21120680D01*
X9416366Y-21105401D01*
X9471204Y-21100000D01*
X10528796Y-21100000D01*
X10583634Y-21105401D01*
X10583634Y-21105401D01*
G37*
G36*
X13083634Y-21105401D02*
G01*
X13134001Y-21120680D01*
X13180427Y-21145495D01*
X13221115Y-21178885D01*
X13254505Y-21219573D01*
X13279320Y-21265999D01*
X13294599Y-21316366D01*
X13300000Y-21371204D01*
X13300000Y-22003796D01*
X13294599Y-22058634D01*
X13279320Y-22109001D01*
X13254505Y-22155427D01*
X13221115Y-22196115D01*
X13180427Y-22229505D01*
X13134001Y-22254320D01*
X13083634Y-22269599D01*
X13028796Y-22275000D01*
X11971204Y-22275000D01*
X11916366Y-22269599D01*
X11865999Y-22254320D01*
X11819573Y-22229505D01*
X11778885Y-22196115D01*
X11745495Y-22155427D01*
X11720680Y-22109001D01*
X11705401Y-22058634D01*
X11700000Y-22003796D01*
X11700000Y-21371204D01*
X11705401Y-21316366D01*
X11720680Y-21265999D01*
X11745495Y-21219573D01*
X11778885Y-21178885D01*
X11819573Y-21145495D01*
X11865999Y-21120680D01*
X11916366Y-21105401D01*
X11971204Y-21100000D01*
X13028796Y-21100000D01*
X13083634Y-21105401D01*
X13083634Y-21105401D01*
G37*
G36*
X4333634Y-20605401D02*
G01*
X4384001Y-20620680D01*
X4430427Y-20645495D01*
X4471115Y-20678885D01*
X4504505Y-20719573D01*
X4529320Y-20765999D01*
X4544599Y-20816366D01*
X4550000Y-20871204D01*
X4550000Y-21503796D01*
X4544599Y-21558634D01*
X4529320Y-21609001D01*
X4504505Y-21655427D01*
X4471115Y-21696115D01*
X4430427Y-21729505D01*
X4384001Y-21754320D01*
X4333634Y-21769599D01*
X4278796Y-21775000D01*
X3221204Y-21775000D01*
X3166366Y-21769599D01*
X3115999Y-21754320D01*
X3069573Y-21729505D01*
X3028885Y-21696115D01*
X2995495Y-21655427D01*
X2970680Y-21609001D01*
X2955401Y-21558634D01*
X2950000Y-21503796D01*
X2950000Y-20871204D01*
X2955401Y-20816366D01*
X2970680Y-20765999D01*
X2995495Y-20719573D01*
X3028885Y-20678885D01*
X3069573Y-20645495D01*
X3115999Y-20620680D01*
X3166366Y-20605401D01*
X3221204Y-20600000D01*
X4278796Y-20600000D01*
X4333634Y-20605401D01*
X4333634Y-20605401D01*
G37*
G36*
X6333634Y-20605401D02*
G01*
X6384001Y-20620680D01*
X6430427Y-20645495D01*
X6471115Y-20678885D01*
X6504505Y-20719573D01*
X6529320Y-20765999D01*
X6544599Y-20816366D01*
X6550000Y-20871204D01*
X6550000Y-21503796D01*
X6544599Y-21558634D01*
X6529320Y-21609001D01*
X6504505Y-21655427D01*
X6471115Y-21696115D01*
X6430427Y-21729505D01*
X6384001Y-21754320D01*
X6333634Y-21769599D01*
X6278796Y-21775000D01*
X5221204Y-21775000D01*
X5166366Y-21769599D01*
X5115999Y-21754320D01*
X5069573Y-21729505D01*
X5028885Y-21696115D01*
X4995495Y-21655427D01*
X4970680Y-21609001D01*
X4955401Y-21558634D01*
X4950000Y-21503796D01*
X4950000Y-20871204D01*
X4955401Y-20816366D01*
X4970680Y-20765999D01*
X4995495Y-20719573D01*
X5028885Y-20678885D01*
X5069573Y-20645495D01*
X5115999Y-20620680D01*
X5166366Y-20605401D01*
X5221204Y-20600000D01*
X6278796Y-20600000D01*
X6333634Y-20605401D01*
X6333634Y-20605401D01*
G37*
G36*
X15083634Y-20480401D02*
G01*
X15134001Y-20495680D01*
X15180427Y-20520495D01*
X15221115Y-20553885D01*
X15254505Y-20594573D01*
X15279320Y-20640999D01*
X15294599Y-20691366D01*
X15300000Y-20746204D01*
X15300000Y-21378796D01*
X15294599Y-21433634D01*
X15279320Y-21484001D01*
X15254505Y-21530427D01*
X15221115Y-21571115D01*
X15180427Y-21604505D01*
X15134001Y-21629320D01*
X15083634Y-21644599D01*
X15028796Y-21650000D01*
X13971204Y-21650000D01*
X13916366Y-21644599D01*
X13865999Y-21629320D01*
X13819573Y-21604505D01*
X13778885Y-21571115D01*
X13745495Y-21530427D01*
X13720680Y-21484001D01*
X13705401Y-21433634D01*
X13700000Y-21378796D01*
X13700000Y-20746204D01*
X13705401Y-20691366D01*
X13720680Y-20640999D01*
X13745495Y-20594573D01*
X13778885Y-20553885D01*
X13819573Y-20520495D01*
X13865999Y-20495680D01*
X13916366Y-20480401D01*
X13971204Y-20475000D01*
X15028796Y-20475000D01*
X15083634Y-20480401D01*
X15083634Y-20480401D01*
G37*
G36*
X22833634Y-19980401D02*
G01*
X22884001Y-19995680D01*
X22930427Y-20020495D01*
X22971115Y-20053885D01*
X23004505Y-20094573D01*
X23029320Y-20140999D01*
X23044599Y-20191366D01*
X23050000Y-20246204D01*
X23050000Y-20878796D01*
X23044599Y-20933634D01*
X23029320Y-20984001D01*
X23004505Y-21030427D01*
X22971115Y-21071115D01*
X22930427Y-21104505D01*
X22884001Y-21129320D01*
X22833634Y-21144599D01*
X22778796Y-21150000D01*
X21721204Y-21150000D01*
X21666366Y-21144599D01*
X21615999Y-21129320D01*
X21569573Y-21104505D01*
X21528885Y-21071115D01*
X21495495Y-21030427D01*
X21470680Y-20984001D01*
X21455401Y-20933634D01*
X21450000Y-20878796D01*
X21450000Y-20246204D01*
X21455401Y-20191366D01*
X21470680Y-20140999D01*
X21495495Y-20094573D01*
X21528885Y-20053885D01*
X21569573Y-20020495D01*
X21615999Y-19995680D01*
X21666366Y-19980401D01*
X21721204Y-19975000D01*
X22778796Y-19975000D01*
X22833634Y-19980401D01*
X22833634Y-19980401D01*
G37*
G36*
X19230000Y-21125000D02*
G01*
X17970000Y-21125000D01*
X17970000Y-20275000D01*
X19230000Y-20275000D01*
X19230000Y-21125000D01*
X19230000Y-21125000D01*
G37*
G36*
X17030000Y-21125000D02*
G01*
X15770000Y-21125000D01*
X15770000Y-20275000D01*
X17030000Y-20275000D01*
X17030000Y-21125000D01*
X17030000Y-21125000D01*
G37*
G36*
X2083634Y-19605401D02*
G01*
X2134001Y-19620680D01*
X2180427Y-19645495D01*
X2221115Y-19678885D01*
X2254505Y-19719573D01*
X2279320Y-19765999D01*
X2294599Y-19816366D01*
X2300000Y-19871204D01*
X2300000Y-20503796D01*
X2294599Y-20558634D01*
X2279320Y-20609001D01*
X2254505Y-20655427D01*
X2221115Y-20696115D01*
X2180427Y-20729505D01*
X2134001Y-20754320D01*
X2083634Y-20769599D01*
X2028796Y-20775000D01*
X971204Y-20775000D01*
X916366Y-20769599D01*
X865999Y-20754320D01*
X819573Y-20729505D01*
X778885Y-20696115D01*
X745495Y-20655427D01*
X720680Y-20609001D01*
X705401Y-20558634D01*
X700000Y-20503796D01*
X700000Y-19871204D01*
X705401Y-19816366D01*
X720680Y-19765999D01*
X745495Y-19719573D01*
X778885Y-19678885D01*
X819573Y-19645495D01*
X865999Y-19620680D01*
X916366Y-19605401D01*
X971204Y-19600000D01*
X2028796Y-19600000D01*
X2083634Y-19605401D01*
X2083634Y-19605401D01*
G37*
G36*
X13083634Y-19230401D02*
G01*
X13134001Y-19245680D01*
X13180427Y-19270495D01*
X13221115Y-19303885D01*
X13254505Y-19344573D01*
X13279320Y-19390999D01*
X13294599Y-19441366D01*
X13300000Y-19496204D01*
X13300000Y-20128796D01*
X13294599Y-20183634D01*
X13279320Y-20234001D01*
X13254505Y-20280427D01*
X13221115Y-20321115D01*
X13180427Y-20354505D01*
X13134001Y-20379320D01*
X13083634Y-20394599D01*
X13028796Y-20400000D01*
X11971204Y-20400000D01*
X11916366Y-20394599D01*
X11865999Y-20379320D01*
X11819573Y-20354505D01*
X11778885Y-20321115D01*
X11745495Y-20280427D01*
X11720680Y-20234001D01*
X11705401Y-20183634D01*
X11700000Y-20128796D01*
X11700000Y-19496204D01*
X11705401Y-19441366D01*
X11720680Y-19390999D01*
X11745495Y-19344573D01*
X11778885Y-19303885D01*
X11819573Y-19270495D01*
X11865999Y-19245680D01*
X11916366Y-19230401D01*
X11971204Y-19225000D01*
X13028796Y-19225000D01*
X13083634Y-19230401D01*
X13083634Y-19230401D01*
G37*
G36*
X10583634Y-19230401D02*
G01*
X10634001Y-19245680D01*
X10680427Y-19270495D01*
X10721115Y-19303885D01*
X10754505Y-19344573D01*
X10779320Y-19390999D01*
X10794599Y-19441366D01*
X10800000Y-19496204D01*
X10800000Y-20128796D01*
X10794599Y-20183634D01*
X10779320Y-20234001D01*
X10754505Y-20280427D01*
X10721115Y-20321115D01*
X10680427Y-20354505D01*
X10634001Y-20379320D01*
X10583634Y-20394599D01*
X10528796Y-20400000D01*
X9471204Y-20400000D01*
X9416366Y-20394599D01*
X9365999Y-20379320D01*
X9319573Y-20354505D01*
X9278885Y-20321115D01*
X9245495Y-20280427D01*
X9220680Y-20234001D01*
X9205401Y-20183634D01*
X9200000Y-20128796D01*
X9200000Y-19496204D01*
X9205401Y-19441366D01*
X9220680Y-19390999D01*
X9245495Y-19344573D01*
X9278885Y-19303885D01*
X9319573Y-19270495D01*
X9365999Y-19245680D01*
X9416366Y-19230401D01*
X9471204Y-19225000D01*
X10528796Y-19225000D01*
X10583634Y-19230401D01*
X10583634Y-19230401D01*
G37*
G36*
X17030000Y-20175000D02*
G01*
X15770000Y-20175000D01*
X15770000Y-19325000D01*
X17030000Y-19325000D01*
X17030000Y-20175000D01*
X17030000Y-20175000D01*
G37*
G36*
X19230000Y-20175000D02*
G01*
X17970000Y-20175000D01*
X17970000Y-19325000D01*
X19230000Y-19325000D01*
X19230000Y-20175000D01*
X19230000Y-20175000D01*
G37*
G36*
X4333634Y-18730401D02*
G01*
X4384001Y-18745680D01*
X4430427Y-18770495D01*
X4471115Y-18803885D01*
X4504505Y-18844573D01*
X4529320Y-18890999D01*
X4544599Y-18941366D01*
X4550000Y-18996204D01*
X4550000Y-19628796D01*
X4544599Y-19683634D01*
X4529320Y-19734001D01*
X4504505Y-19780427D01*
X4471115Y-19821115D01*
X4430427Y-19854505D01*
X4384001Y-19879320D01*
X4333634Y-19894599D01*
X4278796Y-19900000D01*
X3221204Y-19900000D01*
X3166366Y-19894599D01*
X3115999Y-19879320D01*
X3069573Y-19854505D01*
X3028885Y-19821115D01*
X2995495Y-19780427D01*
X2970680Y-19734001D01*
X2955401Y-19683634D01*
X2950000Y-19628796D01*
X2950000Y-18996204D01*
X2955401Y-18941366D01*
X2970680Y-18890999D01*
X2995495Y-18844573D01*
X3028885Y-18803885D01*
X3069573Y-18770495D01*
X3115999Y-18745680D01*
X3166366Y-18730401D01*
X3221204Y-18725000D01*
X4278796Y-18725000D01*
X4333634Y-18730401D01*
X4333634Y-18730401D01*
G37*
G36*
X6333634Y-18730401D02*
G01*
X6384001Y-18745680D01*
X6430427Y-18770495D01*
X6471115Y-18803885D01*
X6504505Y-18844573D01*
X6529320Y-18890999D01*
X6544599Y-18941366D01*
X6550000Y-18996204D01*
X6550000Y-19628796D01*
X6544599Y-19683634D01*
X6529320Y-19734001D01*
X6504505Y-19780427D01*
X6471115Y-19821115D01*
X6430427Y-19854505D01*
X6384001Y-19879320D01*
X6333634Y-19894599D01*
X6278796Y-19900000D01*
X5221204Y-19900000D01*
X5166366Y-19894599D01*
X5115999Y-19879320D01*
X5069573Y-19854505D01*
X5028885Y-19821115D01*
X4995495Y-19780427D01*
X4970680Y-19734001D01*
X4955401Y-19683634D01*
X4950000Y-19628796D01*
X4950000Y-18996204D01*
X4955401Y-18941366D01*
X4970680Y-18890999D01*
X4995495Y-18844573D01*
X5028885Y-18803885D01*
X5069573Y-18770495D01*
X5115999Y-18745680D01*
X5166366Y-18730401D01*
X5221204Y-18725000D01*
X6278796Y-18725000D01*
X6333634Y-18730401D01*
X6333634Y-18730401D01*
G37*
G36*
X19230000Y-19225000D02*
G01*
X17970000Y-19225000D01*
X17970000Y-18375000D01*
X19230000Y-18375000D01*
X19230000Y-19225000D01*
X19230000Y-19225000D01*
G37*
G36*
X17030000Y-19225000D02*
G01*
X15770000Y-19225000D01*
X15770000Y-18375000D01*
X17030000Y-18375000D01*
X17030000Y-19225000D01*
X17030000Y-19225000D01*
G37*
G36*
X2083634Y-17730401D02*
G01*
X2134001Y-17745680D01*
X2180427Y-17770495D01*
X2221115Y-17803885D01*
X2254505Y-17844573D01*
X2279320Y-17890999D01*
X2294599Y-17941366D01*
X2300000Y-17996204D01*
X2300000Y-18628796D01*
X2294599Y-18683634D01*
X2279320Y-18734001D01*
X2254505Y-18780427D01*
X2221115Y-18821115D01*
X2180427Y-18854505D01*
X2134001Y-18879320D01*
X2083634Y-18894599D01*
X2028796Y-18900000D01*
X971204Y-18900000D01*
X916366Y-18894599D01*
X865999Y-18879320D01*
X819573Y-18854505D01*
X778885Y-18821115D01*
X745495Y-18780427D01*
X720680Y-18734001D01*
X705401Y-18683634D01*
X700000Y-18628796D01*
X700000Y-17996204D01*
X705401Y-17941366D01*
X720680Y-17890999D01*
X745495Y-17844573D01*
X778885Y-17803885D01*
X819573Y-17770495D01*
X865999Y-17745680D01*
X916366Y-17730401D01*
X971204Y-17725000D01*
X2028796Y-17725000D01*
X2083634Y-17730401D01*
X2083634Y-17730401D01*
G37*
G36*
X11683634Y-16955401D02*
G01*
X11734001Y-16970680D01*
X11780427Y-16995495D01*
X11821115Y-17028885D01*
X11854505Y-17069573D01*
X11879320Y-17115999D01*
X11894599Y-17166366D01*
X11900000Y-17221204D01*
X11900000Y-18278796D01*
X11894599Y-18333634D01*
X11879320Y-18384001D01*
X11854505Y-18430427D01*
X11821115Y-18471115D01*
X11780427Y-18504505D01*
X11734001Y-18529320D01*
X11683634Y-18544599D01*
X11628796Y-18550000D01*
X10996204Y-18550000D01*
X10941366Y-18544599D01*
X10890999Y-18529320D01*
X10844573Y-18504505D01*
X10803885Y-18471115D01*
X10770495Y-18430427D01*
X10745680Y-18384001D01*
X10730401Y-18333634D01*
X10725000Y-18278796D01*
X10725000Y-17221204D01*
X10730401Y-17166366D01*
X10745680Y-17115999D01*
X10770495Y-17069573D01*
X10803885Y-17028885D01*
X10844573Y-16995495D01*
X10890999Y-16970680D01*
X10941366Y-16955401D01*
X10996204Y-16950000D01*
X11628796Y-16950000D01*
X11683634Y-16955401D01*
X11683634Y-16955401D01*
G37*
G36*
X13558634Y-16955401D02*
G01*
X13609001Y-16970680D01*
X13655427Y-16995495D01*
X13696115Y-17028885D01*
X13729505Y-17069573D01*
X13754320Y-17115999D01*
X13769599Y-17166366D01*
X13775000Y-17221204D01*
X13775000Y-18278796D01*
X13769599Y-18333634D01*
X13754320Y-18384001D01*
X13729505Y-18430427D01*
X13696115Y-18471115D01*
X13655427Y-18504505D01*
X13609001Y-18529320D01*
X13558634Y-18544599D01*
X13503796Y-18550000D01*
X12871204Y-18550000D01*
X12816366Y-18544599D01*
X12765999Y-18529320D01*
X12719573Y-18504505D01*
X12678885Y-18471115D01*
X12645495Y-18430427D01*
X12620680Y-18384001D01*
X12605401Y-18333634D01*
X12600000Y-18278796D01*
X12600000Y-17221204D01*
X12605401Y-17166366D01*
X12620680Y-17115999D01*
X12645495Y-17069573D01*
X12678885Y-17028885D01*
X12719573Y-16995495D01*
X12765999Y-16970680D01*
X12816366Y-16955401D01*
X12871204Y-16950000D01*
X13503796Y-16950000D01*
X13558634Y-16955401D01*
X13558634Y-16955401D01*
G37*
G36*
X8808634Y-15955401D02*
G01*
X8859001Y-15970680D01*
X8905427Y-15995495D01*
X8946115Y-16028885D01*
X8979505Y-16069573D01*
X9004320Y-16115999D01*
X9019599Y-16166366D01*
X9025000Y-16221204D01*
X9025000Y-17278796D01*
X9019599Y-17333634D01*
X9004320Y-17384001D01*
X8979505Y-17430427D01*
X8946115Y-17471115D01*
X8905427Y-17504505D01*
X8859001Y-17529320D01*
X8808634Y-17544599D01*
X8753796Y-17550000D01*
X8121204Y-17550000D01*
X8066366Y-17544599D01*
X8015999Y-17529320D01*
X7969573Y-17504505D01*
X7928885Y-17471115D01*
X7895495Y-17430427D01*
X7870680Y-17384001D01*
X7855401Y-17333634D01*
X7850000Y-17278796D01*
X7850000Y-16221204D01*
X7855401Y-16166366D01*
X7870680Y-16115999D01*
X7895495Y-16069573D01*
X7928885Y-16028885D01*
X7969573Y-15995495D01*
X8015999Y-15970680D01*
X8066366Y-15955401D01*
X8121204Y-15950000D01*
X8753796Y-15950000D01*
X8808634Y-15955401D01*
X8808634Y-15955401D01*
G37*
G36*
X6933634Y-15955401D02*
G01*
X6984001Y-15970680D01*
X7030427Y-15995495D01*
X7071115Y-16028885D01*
X7104505Y-16069573D01*
X7129320Y-16115999D01*
X7144599Y-16166366D01*
X7150000Y-16221204D01*
X7150000Y-17278796D01*
X7144599Y-17333634D01*
X7129320Y-17384001D01*
X7104505Y-17430427D01*
X7071115Y-17471115D01*
X7030427Y-17504505D01*
X6984001Y-17529320D01*
X6933634Y-17544599D01*
X6878796Y-17550000D01*
X6246204Y-17550000D01*
X6191366Y-17544599D01*
X6140999Y-17529320D01*
X6094573Y-17504505D01*
X6053885Y-17471115D01*
X6020495Y-17430427D01*
X5995680Y-17384001D01*
X5980401Y-17333634D01*
X5975000Y-17278796D01*
X5975000Y-16221204D01*
X5980401Y-16166366D01*
X5995680Y-16115999D01*
X6020495Y-16069573D01*
X6053885Y-16028885D01*
X6094573Y-15995495D01*
X6140999Y-15970680D01*
X6191366Y-15955401D01*
X6246204Y-15950000D01*
X6878796Y-15950000D01*
X6933634Y-15955401D01*
X6933634Y-15955401D01*
G37*
G36*
X17833634Y-16355401D02*
G01*
X17884001Y-16370680D01*
X17930427Y-16395495D01*
X17971115Y-16428885D01*
X18004505Y-16469573D01*
X18029320Y-16515999D01*
X18044599Y-16566366D01*
X18050000Y-16621204D01*
X18050000Y-17253796D01*
X18044599Y-17308634D01*
X18029320Y-17359001D01*
X18004505Y-17405427D01*
X17971115Y-17446115D01*
X17930427Y-17479505D01*
X17884001Y-17504320D01*
X17833634Y-17519599D01*
X17778796Y-17525000D01*
X16721204Y-17525000D01*
X16666366Y-17519599D01*
X16615999Y-17504320D01*
X16569573Y-17479505D01*
X16528885Y-17446115D01*
X16495495Y-17405427D01*
X16470680Y-17359001D01*
X16455401Y-17308634D01*
X16450000Y-17253796D01*
X16450000Y-16621204D01*
X16455401Y-16566366D01*
X16470680Y-16515999D01*
X16495495Y-16469573D01*
X16528885Y-16428885D01*
X16569573Y-16395495D01*
X16615999Y-16370680D01*
X16666366Y-16355401D01*
X16721204Y-16350000D01*
X17778796Y-16350000D01*
X17833634Y-16355401D01*
X17833634Y-16355401D01*
G37*
G36*
X20083634Y-16105401D02*
G01*
X20134001Y-16120680D01*
X20180427Y-16145495D01*
X20221115Y-16178885D01*
X20254505Y-16219573D01*
X20279320Y-16265999D01*
X20294599Y-16316366D01*
X20300000Y-16371204D01*
X20300000Y-17003796D01*
X20294599Y-17058634D01*
X20279320Y-17109001D01*
X20254505Y-17155427D01*
X20221115Y-17196115D01*
X20180427Y-17229505D01*
X20134001Y-17254320D01*
X20083634Y-17269599D01*
X20028796Y-17275000D01*
X18971204Y-17275000D01*
X18916366Y-17269599D01*
X18865999Y-17254320D01*
X18819573Y-17229505D01*
X18778885Y-17196115D01*
X18745495Y-17155427D01*
X18720680Y-17109001D01*
X18705401Y-17058634D01*
X18700000Y-17003796D01*
X18700000Y-16371204D01*
X18705401Y-16316366D01*
X18720680Y-16265999D01*
X18745495Y-16219573D01*
X18778885Y-16178885D01*
X18819573Y-16145495D01*
X18865999Y-16120680D01*
X18916366Y-16105401D01*
X18971204Y-16100000D01*
X20028796Y-16100000D01*
X20083634Y-16105401D01*
X20083634Y-16105401D01*
G37*
G36*
X21933634Y-15455401D02*
G01*
X21984001Y-15470680D01*
X22030427Y-15495495D01*
X22071115Y-15528885D01*
X22104505Y-15569573D01*
X22129320Y-15615999D01*
X22144599Y-15666366D01*
X22150000Y-15721204D01*
X22150000Y-16778796D01*
X22144599Y-16833634D01*
X22129320Y-16884001D01*
X22104505Y-16930427D01*
X22071115Y-16971115D01*
X22030427Y-17004505D01*
X21984001Y-17029320D01*
X21933634Y-17044599D01*
X21878796Y-17050000D01*
X21246204Y-17050000D01*
X21191366Y-17044599D01*
X21140999Y-17029320D01*
X21094573Y-17004505D01*
X21053885Y-16971115D01*
X21020495Y-16930427D01*
X20995680Y-16884001D01*
X20980401Y-16833634D01*
X20975000Y-16778796D01*
X20975000Y-15721204D01*
X20980401Y-15666366D01*
X20995680Y-15615999D01*
X21020495Y-15569573D01*
X21053885Y-15528885D01*
X21094573Y-15495495D01*
X21140999Y-15470680D01*
X21191366Y-15455401D01*
X21246204Y-15450000D01*
X21878796Y-15450000D01*
X21933634Y-15455401D01*
X21933634Y-15455401D01*
G37*
G36*
X23808634Y-15455401D02*
G01*
X23859001Y-15470680D01*
X23905427Y-15495495D01*
X23946115Y-15528885D01*
X23979505Y-15569573D01*
X24004320Y-15615999D01*
X24019599Y-15666366D01*
X24025000Y-15721204D01*
X24025000Y-16778796D01*
X24019599Y-16833634D01*
X24004320Y-16884001D01*
X23979505Y-16930427D01*
X23946115Y-16971115D01*
X23905427Y-17004505D01*
X23859001Y-17029320D01*
X23808634Y-17044599D01*
X23753796Y-17050000D01*
X23121204Y-17050000D01*
X23066366Y-17044599D01*
X23015999Y-17029320D01*
X22969573Y-17004505D01*
X22928885Y-16971115D01*
X22895495Y-16930427D01*
X22870680Y-16884001D01*
X22855401Y-16833634D01*
X22850000Y-16778796D01*
X22850000Y-15721204D01*
X22855401Y-15666366D01*
X22870680Y-15615999D01*
X22895495Y-15569573D01*
X22928885Y-15528885D01*
X22969573Y-15495495D01*
X23015999Y-15470680D01*
X23066366Y-15455401D01*
X23121204Y-15450000D01*
X23753796Y-15450000D01*
X23808634Y-15455401D01*
X23808634Y-15455401D01*
G37*
G36*
X29058634Y-15455401D02*
G01*
X29109001Y-15470680D01*
X29155427Y-15495495D01*
X29196115Y-15528885D01*
X29229505Y-15569573D01*
X29254320Y-15615999D01*
X29269599Y-15666366D01*
X29275000Y-15721204D01*
X29275000Y-16778796D01*
X29269599Y-16833634D01*
X29254320Y-16884001D01*
X29229505Y-16930427D01*
X29196115Y-16971115D01*
X29155427Y-17004505D01*
X29109001Y-17029320D01*
X29058634Y-17044599D01*
X29003796Y-17050000D01*
X28371204Y-17050000D01*
X28316366Y-17044599D01*
X28265999Y-17029320D01*
X28219573Y-17004505D01*
X28178885Y-16971115D01*
X28145495Y-16930427D01*
X28120680Y-16884001D01*
X28105401Y-16833634D01*
X28100000Y-16778796D01*
X28100000Y-15721204D01*
X28105401Y-15666366D01*
X28120680Y-15615999D01*
X28145495Y-15569573D01*
X28178885Y-15528885D01*
X28219573Y-15495495D01*
X28265999Y-15470680D01*
X28316366Y-15455401D01*
X28371204Y-15450000D01*
X29003796Y-15450000D01*
X29058634Y-15455401D01*
X29058634Y-15455401D01*
G37*
G36*
X27183634Y-15455401D02*
G01*
X27234001Y-15470680D01*
X27280427Y-15495495D01*
X27321115Y-15528885D01*
X27354505Y-15569573D01*
X27379320Y-15615999D01*
X27394599Y-15666366D01*
X27400000Y-15721204D01*
X27400000Y-16778796D01*
X27394599Y-16833634D01*
X27379320Y-16884001D01*
X27354505Y-16930427D01*
X27321115Y-16971115D01*
X27280427Y-17004505D01*
X27234001Y-17029320D01*
X27183634Y-17044599D01*
X27128796Y-17050000D01*
X26496204Y-17050000D01*
X26441366Y-17044599D01*
X26390999Y-17029320D01*
X26344573Y-17004505D01*
X26303885Y-16971115D01*
X26270495Y-16930427D01*
X26245680Y-16884001D01*
X26230401Y-16833634D01*
X26225000Y-16778796D01*
X26225000Y-15721204D01*
X26230401Y-15666366D01*
X26245680Y-15615999D01*
X26270495Y-15569573D01*
X26303885Y-15528885D01*
X26344573Y-15495495D01*
X26390999Y-15470680D01*
X26441366Y-15455401D01*
X26496204Y-15450000D01*
X27128796Y-15450000D01*
X27183634Y-15455401D01*
X27183634Y-15455401D01*
G37*
G36*
X15050000Y-16200000D02*
G01*
X13650000Y-16200000D01*
X13650000Y-14800000D01*
X15050000Y-14800000D01*
X15050000Y-16200000D01*
X15050000Y-16200000D01*
G37*
G36*
X4675000Y-15730000D02*
G01*
X3825000Y-15730000D01*
X3825000Y-14470000D01*
X4675000Y-14470000D01*
X4675000Y-15730000D01*
X4675000Y-15730000D01*
G37*
G36*
X5625000Y-15730000D02*
G01*
X4775000Y-15730000D01*
X4775000Y-14470000D01*
X5625000Y-14470000D01*
X5625000Y-15730000D01*
X5625000Y-15730000D01*
G37*
G36*
X3725000Y-15730000D02*
G01*
X2875000Y-15730000D01*
X2875000Y-14470000D01*
X3725000Y-14470000D01*
X3725000Y-15730000D01*
X3725000Y-15730000D01*
G37*
G36*
X17833634Y-14480401D02*
G01*
X17884001Y-14495680D01*
X17930427Y-14520495D01*
X17971115Y-14553885D01*
X18004505Y-14594573D01*
X18029320Y-14640999D01*
X18044599Y-14691366D01*
X18050000Y-14746204D01*
X18050000Y-15378796D01*
X18044599Y-15433634D01*
X18029320Y-15484001D01*
X18004505Y-15530427D01*
X17971115Y-15571115D01*
X17930427Y-15604505D01*
X17884001Y-15629320D01*
X17833634Y-15644599D01*
X17778796Y-15650000D01*
X16721204Y-15650000D01*
X16666366Y-15644599D01*
X16615999Y-15629320D01*
X16569573Y-15604505D01*
X16528885Y-15571115D01*
X16495495Y-15530427D01*
X16470680Y-15484001D01*
X16455401Y-15433634D01*
X16450000Y-15378796D01*
X16450000Y-14746204D01*
X16455401Y-14691366D01*
X16470680Y-14640999D01*
X16495495Y-14594573D01*
X16528885Y-14553885D01*
X16569573Y-14520495D01*
X16615999Y-14495680D01*
X16666366Y-14480401D01*
X16721204Y-14475000D01*
X17778796Y-14475000D01*
X17833634Y-14480401D01*
X17833634Y-14480401D01*
G37*
G36*
X7583634Y-14355401D02*
G01*
X7634001Y-14370680D01*
X7680427Y-14395495D01*
X7721115Y-14428885D01*
X7754505Y-14469573D01*
X7779320Y-14515999D01*
X7794599Y-14566366D01*
X7800000Y-14621204D01*
X7800000Y-15253796D01*
X7794599Y-15308634D01*
X7779320Y-15359001D01*
X7754505Y-15405427D01*
X7721115Y-15446115D01*
X7680427Y-15479505D01*
X7634001Y-15504320D01*
X7583634Y-15519599D01*
X7528796Y-15525000D01*
X6471204Y-15525000D01*
X6416366Y-15519599D01*
X6365999Y-15504320D01*
X6319573Y-15479505D01*
X6278885Y-15446115D01*
X6245495Y-15405427D01*
X6220680Y-15359001D01*
X6205401Y-15308634D01*
X6200000Y-15253796D01*
X6200000Y-14621204D01*
X6205401Y-14566366D01*
X6220680Y-14515999D01*
X6245495Y-14469573D01*
X6278885Y-14428885D01*
X6319573Y-14395495D01*
X6365999Y-14370680D01*
X6416366Y-14355401D01*
X6471204Y-14350000D01*
X7528796Y-14350000D01*
X7583634Y-14355401D01*
X7583634Y-14355401D01*
G37*
G36*
X2083634Y-14355401D02*
G01*
X2134001Y-14370680D01*
X2180427Y-14395495D01*
X2221115Y-14428885D01*
X2254505Y-14469573D01*
X2279320Y-14515999D01*
X2294599Y-14566366D01*
X2300000Y-14621204D01*
X2300000Y-15253796D01*
X2294599Y-15308634D01*
X2279320Y-15359001D01*
X2254505Y-15405427D01*
X2221115Y-15446115D01*
X2180427Y-15479505D01*
X2134001Y-15504320D01*
X2083634Y-15519599D01*
X2028796Y-15525000D01*
X971204Y-15525000D01*
X916366Y-15519599D01*
X865999Y-15504320D01*
X819573Y-15479505D01*
X778885Y-15446115D01*
X745495Y-15405427D01*
X720680Y-15359001D01*
X705401Y-15308634D01*
X700000Y-15253796D01*
X700000Y-14621204D01*
X705401Y-14566366D01*
X720680Y-14515999D01*
X745495Y-14469573D01*
X778885Y-14428885D01*
X819573Y-14395495D01*
X865999Y-14370680D01*
X916366Y-14355401D01*
X971204Y-14350000D01*
X2028796Y-14350000D01*
X2083634Y-14355401D01*
X2083634Y-14355401D01*
G37*
G36*
X20083634Y-14230401D02*
G01*
X20134001Y-14245680D01*
X20180427Y-14270495D01*
X20221115Y-14303885D01*
X20254505Y-14344573D01*
X20279320Y-14390999D01*
X20294599Y-14441366D01*
X20300000Y-14496204D01*
X20300000Y-15128796D01*
X20294599Y-15183634D01*
X20279320Y-15234001D01*
X20254505Y-15280427D01*
X20221115Y-15321115D01*
X20180427Y-15354505D01*
X20134001Y-15379320D01*
X20083634Y-15394599D01*
X20028796Y-15400000D01*
X18971204Y-15400000D01*
X18916366Y-15394599D01*
X18865999Y-15379320D01*
X18819573Y-15354505D01*
X18778885Y-15321115D01*
X18745495Y-15280427D01*
X18720680Y-15234001D01*
X18705401Y-15183634D01*
X18700000Y-15128796D01*
X18700000Y-14496204D01*
X18705401Y-14441366D01*
X18720680Y-14390999D01*
X18745495Y-14344573D01*
X18778885Y-14303885D01*
X18819573Y-14270495D01*
X18865999Y-14245680D01*
X18916366Y-14230401D01*
X18971204Y-14225000D01*
X20028796Y-14225000D01*
X20083634Y-14230401D01*
X20083634Y-14230401D01*
G37*
G36*
X11950000Y-15400000D02*
G01*
X10250000Y-15400000D01*
X10250000Y-13600000D01*
X11950000Y-13600000D01*
X11950000Y-15400000D01*
X11950000Y-15400000D01*
G37*
G36*
X29058634Y-13455401D02*
G01*
X29109001Y-13470680D01*
X29155427Y-13495495D01*
X29196115Y-13528885D01*
X29229505Y-13569573D01*
X29254320Y-13615999D01*
X29269599Y-13666366D01*
X29275000Y-13721204D01*
X29275000Y-14778796D01*
X29269599Y-14833634D01*
X29254320Y-14884001D01*
X29229505Y-14930427D01*
X29196115Y-14971115D01*
X29155427Y-15004505D01*
X29109001Y-15029320D01*
X29058634Y-15044599D01*
X29003796Y-15050000D01*
X28371204Y-15050000D01*
X28316366Y-15044599D01*
X28265999Y-15029320D01*
X28219573Y-15004505D01*
X28178885Y-14971115D01*
X28145495Y-14930427D01*
X28120680Y-14884001D01*
X28105401Y-14833634D01*
X28100000Y-14778796D01*
X28100000Y-13721204D01*
X28105401Y-13666366D01*
X28120680Y-13615999D01*
X28145495Y-13569573D01*
X28178885Y-13528885D01*
X28219573Y-13495495D01*
X28265999Y-13470680D01*
X28316366Y-13455401D01*
X28371204Y-13450000D01*
X29003796Y-13450000D01*
X29058634Y-13455401D01*
X29058634Y-13455401D01*
G37*
G36*
X27183634Y-13455401D02*
G01*
X27234001Y-13470680D01*
X27280427Y-13495495D01*
X27321115Y-13528885D01*
X27354505Y-13569573D01*
X27379320Y-13615999D01*
X27394599Y-13666366D01*
X27400000Y-13721204D01*
X27400000Y-14778796D01*
X27394599Y-14833634D01*
X27379320Y-14884001D01*
X27354505Y-14930427D01*
X27321115Y-14971115D01*
X27280427Y-15004505D01*
X27234001Y-15029320D01*
X27183634Y-15044599D01*
X27128796Y-15050000D01*
X26496204Y-15050000D01*
X26441366Y-15044599D01*
X26390999Y-15029320D01*
X26344573Y-15004505D01*
X26303885Y-14971115D01*
X26270495Y-14930427D01*
X26245680Y-14884001D01*
X26230401Y-14833634D01*
X26225000Y-14778796D01*
X26225000Y-13721204D01*
X26230401Y-13666366D01*
X26245680Y-13615999D01*
X26270495Y-13569573D01*
X26303885Y-13528885D01*
X26344573Y-13495495D01*
X26390999Y-13470680D01*
X26441366Y-13455401D01*
X26496204Y-13450000D01*
X27128796Y-13450000D01*
X27183634Y-13455401D01*
X27183634Y-13455401D01*
G37*
G36*
X25730000Y-14875000D02*
G01*
X24470000Y-14875000D01*
X24470000Y-14025000D01*
X25730000Y-14025000D01*
X25730000Y-14875000D01*
X25730000Y-14875000D01*
G37*
G36*
X23530000Y-14875000D02*
G01*
X22270000Y-14875000D01*
X22270000Y-14025000D01*
X23530000Y-14025000D01*
X23530000Y-14875000D01*
X23530000Y-14875000D01*
G37*
G36*
X15050000Y-14200000D02*
G01*
X13650000Y-14200000D01*
X13650000Y-12800000D01*
X15050000Y-12800000D01*
X15050000Y-14200000D01*
X15050000Y-14200000D01*
G37*
G36*
X25730000Y-13925000D02*
G01*
X24470000Y-13925000D01*
X24470000Y-13075000D01*
X25730000Y-13075000D01*
X25730000Y-13925000D01*
X25730000Y-13925000D01*
G37*
G36*
X18833634Y-12705401D02*
G01*
X18884001Y-12720680D01*
X18930427Y-12745495D01*
X18971115Y-12778885D01*
X19004505Y-12819573D01*
X19029320Y-12865999D01*
X19044599Y-12916366D01*
X19050000Y-12971204D01*
X19050000Y-13603796D01*
X19044599Y-13658634D01*
X19029320Y-13709001D01*
X19004505Y-13755427D01*
X18971115Y-13796115D01*
X18930427Y-13829505D01*
X18884001Y-13854320D01*
X18833634Y-13869599D01*
X18778796Y-13875000D01*
X17721204Y-13875000D01*
X17666366Y-13869599D01*
X17615999Y-13854320D01*
X17569573Y-13829505D01*
X17528885Y-13796115D01*
X17495495Y-13755427D01*
X17470680Y-13709001D01*
X17455401Y-13658634D01*
X17450000Y-13603796D01*
X17450000Y-12971204D01*
X17455401Y-12916366D01*
X17470680Y-12865999D01*
X17495495Y-12819573D01*
X17528885Y-12778885D01*
X17569573Y-12745495D01*
X17615999Y-12720680D01*
X17666366Y-12705401D01*
X17721204Y-12700000D01*
X18778796Y-12700000D01*
X18833634Y-12705401D01*
X18833634Y-12705401D01*
G37*
G36*
X20833634Y-12705401D02*
G01*
X20884001Y-12720680D01*
X20930427Y-12745495D01*
X20971115Y-12778885D01*
X21004505Y-12819573D01*
X21029320Y-12865999D01*
X21044599Y-12916366D01*
X21050000Y-12971204D01*
X21050000Y-13603796D01*
X21044599Y-13658634D01*
X21029320Y-13709001D01*
X21004505Y-13755427D01*
X20971115Y-13796115D01*
X20930427Y-13829505D01*
X20884001Y-13854320D01*
X20833634Y-13869599D01*
X20778796Y-13875000D01*
X19721204Y-13875000D01*
X19666366Y-13869599D01*
X19615999Y-13854320D01*
X19569573Y-13829505D01*
X19528885Y-13796115D01*
X19495495Y-13755427D01*
X19470680Y-13709001D01*
X19455401Y-13658634D01*
X19450000Y-13603796D01*
X19450000Y-12971204D01*
X19455401Y-12916366D01*
X19470680Y-12865999D01*
X19495495Y-12819573D01*
X19528885Y-12778885D01*
X19569573Y-12745495D01*
X19615999Y-12720680D01*
X19666366Y-12705401D01*
X19721204Y-12700000D01*
X20778796Y-12700000D01*
X20833634Y-12705401D01*
X20833634Y-12705401D01*
G37*
G36*
X7583634Y-12480401D02*
G01*
X7634001Y-12495680D01*
X7680427Y-12520495D01*
X7721115Y-12553885D01*
X7754505Y-12594573D01*
X7779320Y-12640999D01*
X7794599Y-12691366D01*
X7800000Y-12746204D01*
X7800000Y-13378796D01*
X7794599Y-13433634D01*
X7779320Y-13484001D01*
X7754505Y-13530427D01*
X7721115Y-13571115D01*
X7680427Y-13604505D01*
X7634001Y-13629320D01*
X7583634Y-13644599D01*
X7528796Y-13650000D01*
X6471204Y-13650000D01*
X6416366Y-13644599D01*
X6365999Y-13629320D01*
X6319573Y-13604505D01*
X6278885Y-13571115D01*
X6245495Y-13530427D01*
X6220680Y-13484001D01*
X6205401Y-13433634D01*
X6200000Y-13378796D01*
X6200000Y-12746204D01*
X6205401Y-12691366D01*
X6220680Y-12640999D01*
X6245495Y-12594573D01*
X6278885Y-12553885D01*
X6319573Y-12520495D01*
X6365999Y-12495680D01*
X6416366Y-12480401D01*
X6471204Y-12475000D01*
X7528796Y-12475000D01*
X7583634Y-12480401D01*
X7583634Y-12480401D01*
G37*
G36*
X2083634Y-12480401D02*
G01*
X2134001Y-12495680D01*
X2180427Y-12520495D01*
X2221115Y-12553885D01*
X2254505Y-12594573D01*
X2279320Y-12640999D01*
X2294599Y-12691366D01*
X2300000Y-12746204D01*
X2300000Y-13378796D01*
X2294599Y-13433634D01*
X2279320Y-13484001D01*
X2254505Y-13530427D01*
X2221115Y-13571115D01*
X2180427Y-13604505D01*
X2134001Y-13629320D01*
X2083634Y-13644599D01*
X2028796Y-13650000D01*
X971204Y-13650000D01*
X916366Y-13644599D01*
X865999Y-13629320D01*
X819573Y-13604505D01*
X778885Y-13571115D01*
X745495Y-13530427D01*
X720680Y-13484001D01*
X705401Y-13433634D01*
X700000Y-13378796D01*
X700000Y-12746204D01*
X705401Y-12691366D01*
X720680Y-12640999D01*
X745495Y-12594573D01*
X778885Y-12553885D01*
X819573Y-12520495D01*
X865999Y-12495680D01*
X916366Y-12480401D01*
X971204Y-12475000D01*
X2028796Y-12475000D01*
X2083634Y-12480401D01*
X2083634Y-12480401D01*
G37*
G36*
X3725000Y-13530000D02*
G01*
X2875000Y-13530000D01*
X2875000Y-12270000D01*
X3725000Y-12270000D01*
X3725000Y-13530000D01*
X3725000Y-13530000D01*
G37*
G36*
X5625000Y-13530000D02*
G01*
X4775000Y-13530000D01*
X4775000Y-12270000D01*
X5625000Y-12270000D01*
X5625000Y-13530000D01*
X5625000Y-13530000D01*
G37*
G36*
X25730000Y-12975000D02*
G01*
X24470000Y-12975000D01*
X24470000Y-12125000D01*
X25730000Y-12125000D01*
X25730000Y-12975000D01*
X25730000Y-12975000D01*
G37*
G36*
X23530000Y-12975000D02*
G01*
X22270000Y-12975000D01*
X22270000Y-12125000D01*
X23530000Y-12125000D01*
X23530000Y-12975000D01*
X23530000Y-12975000D01*
G37*
G36*
X20833634Y-10830401D02*
G01*
X20884001Y-10845680D01*
X20930427Y-10870495D01*
X20971115Y-10903885D01*
X21004505Y-10944573D01*
X21029320Y-10990999D01*
X21044599Y-11041366D01*
X21050000Y-11096204D01*
X21050000Y-11728796D01*
X21044599Y-11783634D01*
X21029320Y-11834001D01*
X21004505Y-11880427D01*
X20971115Y-11921115D01*
X20930427Y-11954505D01*
X20884001Y-11979320D01*
X20833634Y-11994599D01*
X20778796Y-12000000D01*
X19721204Y-12000000D01*
X19666366Y-11994599D01*
X19615999Y-11979320D01*
X19569573Y-11954505D01*
X19528885Y-11921115D01*
X19495495Y-11880427D01*
X19470680Y-11834001D01*
X19455401Y-11783634D01*
X19450000Y-11728796D01*
X19450000Y-11096204D01*
X19455401Y-11041366D01*
X19470680Y-10990999D01*
X19495495Y-10944573D01*
X19528885Y-10903885D01*
X19569573Y-10870495D01*
X19615999Y-10845680D01*
X19666366Y-10830401D01*
X19721204Y-10825000D01*
X20778796Y-10825000D01*
X20833634Y-10830401D01*
X20833634Y-10830401D01*
G37*
G36*
X18833634Y-10830401D02*
G01*
X18884001Y-10845680D01*
X18930427Y-10870495D01*
X18971115Y-10903885D01*
X19004505Y-10944573D01*
X19029320Y-10990999D01*
X19044599Y-11041366D01*
X19050000Y-11096204D01*
X19050000Y-11728796D01*
X19044599Y-11783634D01*
X19029320Y-11834001D01*
X19004505Y-11880427D01*
X18971115Y-11921115D01*
X18930427Y-11954505D01*
X18884001Y-11979320D01*
X18833634Y-11994599D01*
X18778796Y-12000000D01*
X17721204Y-12000000D01*
X17666366Y-11994599D01*
X17615999Y-11979320D01*
X17569573Y-11954505D01*
X17528885Y-11921115D01*
X17495495Y-11880427D01*
X17470680Y-11834001D01*
X17455401Y-11783634D01*
X17450000Y-11728796D01*
X17450000Y-11096204D01*
X17455401Y-11041366D01*
X17470680Y-10990999D01*
X17495495Y-10944573D01*
X17528885Y-10903885D01*
X17569573Y-10870495D01*
X17615999Y-10845680D01*
X17666366Y-10830401D01*
X17721204Y-10825000D01*
X18778796Y-10825000D01*
X18833634Y-10830401D01*
X18833634Y-10830401D01*
G37*
G36*
X2433634Y-10205401D02*
G01*
X2484001Y-10220680D01*
X2530427Y-10245495D01*
X2571115Y-10278885D01*
X2604505Y-10319573D01*
X2629320Y-10365999D01*
X2644599Y-10416366D01*
X2650000Y-10471204D01*
X2650000Y-11528796D01*
X2644599Y-11583634D01*
X2629320Y-11634001D01*
X2604505Y-11680427D01*
X2571115Y-11721115D01*
X2530427Y-11754505D01*
X2484001Y-11779320D01*
X2433634Y-11794599D01*
X2378796Y-11800000D01*
X1746204Y-11800000D01*
X1691366Y-11794599D01*
X1640999Y-11779320D01*
X1594573Y-11754505D01*
X1553885Y-11721115D01*
X1520495Y-11680427D01*
X1495680Y-11634001D01*
X1480401Y-11583634D01*
X1475000Y-11528796D01*
X1475000Y-10471204D01*
X1480401Y-10416366D01*
X1495680Y-10365999D01*
X1520495Y-10319573D01*
X1553885Y-10278885D01*
X1594573Y-10245495D01*
X1640999Y-10220680D01*
X1691366Y-10205401D01*
X1746204Y-10200000D01*
X2378796Y-10200000D01*
X2433634Y-10205401D01*
X2433634Y-10205401D01*
G37*
G36*
X4308634Y-10205401D02*
G01*
X4359001Y-10220680D01*
X4405427Y-10245495D01*
X4446115Y-10278885D01*
X4479505Y-10319573D01*
X4504320Y-10365999D01*
X4519599Y-10416366D01*
X4525000Y-10471204D01*
X4525000Y-11528796D01*
X4519599Y-11583634D01*
X4504320Y-11634001D01*
X4479505Y-11680427D01*
X4446115Y-11721115D01*
X4405427Y-11754505D01*
X4359001Y-11779320D01*
X4308634Y-11794599D01*
X4253796Y-11800000D01*
X3621204Y-11800000D01*
X3566366Y-11794599D01*
X3515999Y-11779320D01*
X3469573Y-11754505D01*
X3428885Y-11721115D01*
X3395495Y-11680427D01*
X3370680Y-11634001D01*
X3355401Y-11583634D01*
X3350000Y-11528796D01*
X3350000Y-10471204D01*
X3355401Y-10416366D01*
X3370680Y-10365999D01*
X3395495Y-10319573D01*
X3428885Y-10278885D01*
X3469573Y-10245495D01*
X3515999Y-10220680D01*
X3566366Y-10205401D01*
X3621204Y-10200000D01*
X4253796Y-10200000D01*
X4308634Y-10205401D01*
X4308634Y-10205401D01*
G37*
G36*
X6333634Y-10605401D02*
G01*
X6384001Y-10620680D01*
X6430427Y-10645495D01*
X6471115Y-10678885D01*
X6504505Y-10719573D01*
X6529320Y-10765999D01*
X6544599Y-10816366D01*
X6550000Y-10871204D01*
X6550000Y-11503796D01*
X6544599Y-11558634D01*
X6529320Y-11609001D01*
X6504505Y-11655427D01*
X6471115Y-11696115D01*
X6430427Y-11729505D01*
X6384001Y-11754320D01*
X6333634Y-11769599D01*
X6278796Y-11775000D01*
X5221204Y-11775000D01*
X5166366Y-11769599D01*
X5115999Y-11754320D01*
X5069573Y-11729505D01*
X5028885Y-11696115D01*
X4995495Y-11655427D01*
X4970680Y-11609001D01*
X4955401Y-11558634D01*
X4950000Y-11503796D01*
X4950000Y-10871204D01*
X4955401Y-10816366D01*
X4970680Y-10765999D01*
X4995495Y-10719573D01*
X5028885Y-10678885D01*
X5069573Y-10645495D01*
X5115999Y-10620680D01*
X5166366Y-10605401D01*
X5221204Y-10600000D01*
X6278796Y-10600000D01*
X6333634Y-10605401D01*
X6333634Y-10605401D01*
G37*
G36*
X10058634Y-8955401D02*
G01*
X10109001Y-8970680D01*
X10155427Y-8995495D01*
X10196115Y-9028885D01*
X10229505Y-9069573D01*
X10254320Y-9115999D01*
X10269599Y-9166366D01*
X10275000Y-9221204D01*
X10275000Y-10278796D01*
X10269599Y-10333634D01*
X10254320Y-10384001D01*
X10229505Y-10430427D01*
X10196115Y-10471115D01*
X10155427Y-10504505D01*
X10109001Y-10529320D01*
X10058634Y-10544599D01*
X10003796Y-10550000D01*
X9371204Y-10550000D01*
X9316366Y-10544599D01*
X9265999Y-10529320D01*
X9219573Y-10504505D01*
X9178885Y-10471115D01*
X9145495Y-10430427D01*
X9120680Y-10384001D01*
X9105401Y-10333634D01*
X9100000Y-10278796D01*
X9100000Y-9221204D01*
X9105401Y-9166366D01*
X9120680Y-9115999D01*
X9145495Y-9069573D01*
X9178885Y-9028885D01*
X9219573Y-8995495D01*
X9265999Y-8970680D01*
X9316366Y-8955401D01*
X9371204Y-8950000D01*
X10003796Y-8950000D01*
X10058634Y-8955401D01*
X10058634Y-8955401D01*
G37*
G36*
X8183634Y-8955401D02*
G01*
X8234001Y-8970680D01*
X8280427Y-8995495D01*
X8321115Y-9028885D01*
X8354505Y-9069573D01*
X8379320Y-9115999D01*
X8394599Y-9166366D01*
X8400000Y-9221204D01*
X8400000Y-10278796D01*
X8394599Y-10333634D01*
X8379320Y-10384001D01*
X8354505Y-10430427D01*
X8321115Y-10471115D01*
X8280427Y-10504505D01*
X8234001Y-10529320D01*
X8183634Y-10544599D01*
X8128796Y-10550000D01*
X7496204Y-10550000D01*
X7441366Y-10544599D01*
X7390999Y-10529320D01*
X7344573Y-10504505D01*
X7303885Y-10471115D01*
X7270495Y-10430427D01*
X7245680Y-10384001D01*
X7230401Y-10333634D01*
X7225000Y-10278796D01*
X7225000Y-9221204D01*
X7230401Y-9166366D01*
X7245680Y-9115999D01*
X7270495Y-9069573D01*
X7303885Y-9028885D01*
X7344573Y-8995495D01*
X7390999Y-8970680D01*
X7441366Y-8955401D01*
X7496204Y-8950000D01*
X8128796Y-8950000D01*
X8183634Y-8955401D01*
X8183634Y-8955401D01*
G37*
G36*
X12433634Y-8955401D02*
G01*
X12484001Y-8970680D01*
X12530427Y-8995495D01*
X12571115Y-9028885D01*
X12604505Y-9069573D01*
X12629320Y-9115999D01*
X12644599Y-9166366D01*
X12650000Y-9221204D01*
X12650000Y-10278796D01*
X12644599Y-10333634D01*
X12629320Y-10384001D01*
X12604505Y-10430427D01*
X12571115Y-10471115D01*
X12530427Y-10504505D01*
X12484001Y-10529320D01*
X12433634Y-10544599D01*
X12378796Y-10550000D01*
X11746204Y-10550000D01*
X11691366Y-10544599D01*
X11640999Y-10529320D01*
X11594573Y-10504505D01*
X11553885Y-10471115D01*
X11520495Y-10430427D01*
X11495680Y-10384001D01*
X11480401Y-10333634D01*
X11475000Y-10278796D01*
X11475000Y-9221204D01*
X11480401Y-9166366D01*
X11495680Y-9115999D01*
X11520495Y-9069573D01*
X11553885Y-9028885D01*
X11594573Y-8995495D01*
X11640999Y-8970680D01*
X11691366Y-8955401D01*
X11746204Y-8950000D01*
X12378796Y-8950000D01*
X12433634Y-8955401D01*
X12433634Y-8955401D01*
G37*
G36*
X14308634Y-8955401D02*
G01*
X14359001Y-8970680D01*
X14405427Y-8995495D01*
X14446115Y-9028885D01*
X14479505Y-9069573D01*
X14504320Y-9115999D01*
X14519599Y-9166366D01*
X14525000Y-9221204D01*
X14525000Y-10278796D01*
X14519599Y-10333634D01*
X14504320Y-10384001D01*
X14479505Y-10430427D01*
X14446115Y-10471115D01*
X14405427Y-10504505D01*
X14359001Y-10529320D01*
X14308634Y-10544599D01*
X14253796Y-10550000D01*
X13621204Y-10550000D01*
X13566366Y-10544599D01*
X13515999Y-10529320D01*
X13469573Y-10504505D01*
X13428885Y-10471115D01*
X13395495Y-10430427D01*
X13370680Y-10384001D01*
X13355401Y-10333634D01*
X13350000Y-10278796D01*
X13350000Y-9221204D01*
X13355401Y-9166366D01*
X13370680Y-9115999D01*
X13395495Y-9069573D01*
X13428885Y-9028885D01*
X13469573Y-8995495D01*
X13515999Y-8970680D01*
X13566366Y-8955401D01*
X13621204Y-8950000D01*
X14253796Y-8950000D01*
X14308634Y-8955401D01*
X14308634Y-8955401D01*
G37*
G36*
X20058634Y-8705401D02*
G01*
X20109001Y-8720680D01*
X20155427Y-8745495D01*
X20196115Y-8778885D01*
X20229505Y-8819573D01*
X20254320Y-8865999D01*
X20269599Y-8916366D01*
X20275000Y-8971204D01*
X20275000Y-10028796D01*
X20269599Y-10083634D01*
X20254320Y-10134001D01*
X20229505Y-10180427D01*
X20196115Y-10221115D01*
X20155427Y-10254505D01*
X20109001Y-10279320D01*
X20058634Y-10294599D01*
X20003796Y-10300000D01*
X19371204Y-10300000D01*
X19316366Y-10294599D01*
X19265999Y-10279320D01*
X19219573Y-10254505D01*
X19178885Y-10221115D01*
X19145495Y-10180427D01*
X19120680Y-10134001D01*
X19105401Y-10083634D01*
X19100000Y-10028796D01*
X19100000Y-8971204D01*
X19105401Y-8916366D01*
X19120680Y-8865999D01*
X19145495Y-8819573D01*
X19178885Y-8778885D01*
X19219573Y-8745495D01*
X19265999Y-8720680D01*
X19316366Y-8705401D01*
X19371204Y-8700000D01*
X20003796Y-8700000D01*
X20058634Y-8705401D01*
X20058634Y-8705401D01*
G37*
G36*
X18183634Y-8705401D02*
G01*
X18234001Y-8720680D01*
X18280427Y-8745495D01*
X18321115Y-8778885D01*
X18354505Y-8819573D01*
X18379320Y-8865999D01*
X18394599Y-8916366D01*
X18400000Y-8971204D01*
X18400000Y-10028796D01*
X18394599Y-10083634D01*
X18379320Y-10134001D01*
X18354505Y-10180427D01*
X18321115Y-10221115D01*
X18280427Y-10254505D01*
X18234001Y-10279320D01*
X18183634Y-10294599D01*
X18128796Y-10300000D01*
X17496204Y-10300000D01*
X17441366Y-10294599D01*
X17390999Y-10279320D01*
X17344573Y-10254505D01*
X17303885Y-10221115D01*
X17270495Y-10180427D01*
X17245680Y-10134001D01*
X17230401Y-10083634D01*
X17225000Y-10028796D01*
X17225000Y-8971204D01*
X17230401Y-8916366D01*
X17245680Y-8865999D01*
X17270495Y-8819573D01*
X17303885Y-8778885D01*
X17344573Y-8745495D01*
X17390999Y-8720680D01*
X17441366Y-8705401D01*
X17496204Y-8700000D01*
X18128796Y-8700000D01*
X18183634Y-8705401D01*
X18183634Y-8705401D01*
G37*
G36*
X6333634Y-8730401D02*
G01*
X6384001Y-8745680D01*
X6430427Y-8770495D01*
X6471115Y-8803885D01*
X6504505Y-8844573D01*
X6529320Y-8890999D01*
X6544599Y-8941366D01*
X6550000Y-8996204D01*
X6550000Y-9628796D01*
X6544599Y-9683634D01*
X6529320Y-9734001D01*
X6504505Y-9780427D01*
X6471115Y-9821115D01*
X6430427Y-9854505D01*
X6384001Y-9879320D01*
X6333634Y-9894599D01*
X6278796Y-9900000D01*
X5221204Y-9900000D01*
X5166366Y-9894599D01*
X5115999Y-9879320D01*
X5069573Y-9854505D01*
X5028885Y-9821115D01*
X4995495Y-9780427D01*
X4970680Y-9734001D01*
X4955401Y-9683634D01*
X4950000Y-9628796D01*
X4950000Y-8996204D01*
X4955401Y-8941366D01*
X4970680Y-8890999D01*
X4995495Y-8844573D01*
X5028885Y-8803885D01*
X5069573Y-8770495D01*
X5115999Y-8745680D01*
X5166366Y-8730401D01*
X5221204Y-8725000D01*
X6278796Y-8725000D01*
X6333634Y-8730401D01*
X6333634Y-8730401D01*
G37*
G36*
X16583634Y-8605401D02*
G01*
X16634001Y-8620680D01*
X16680427Y-8645495D01*
X16721115Y-8678885D01*
X16754505Y-8719573D01*
X16779320Y-8765999D01*
X16794599Y-8816366D01*
X16800000Y-8871204D01*
X16800000Y-9503796D01*
X16794599Y-9558634D01*
X16779320Y-9609001D01*
X16754505Y-9655427D01*
X16721115Y-9696115D01*
X16680427Y-9729505D01*
X16634001Y-9754320D01*
X16583634Y-9769599D01*
X16528796Y-9775000D01*
X15471204Y-9775000D01*
X15416366Y-9769599D01*
X15365999Y-9754320D01*
X15319573Y-9729505D01*
X15278885Y-9696115D01*
X15245495Y-9655427D01*
X15220680Y-9609001D01*
X15205401Y-9558634D01*
X15200000Y-9503796D01*
X15200000Y-8871204D01*
X15205401Y-8816366D01*
X15220680Y-8765999D01*
X15245495Y-8719573D01*
X15278885Y-8678885D01*
X15319573Y-8645495D01*
X15365999Y-8620680D01*
X15416366Y-8605401D01*
X15471204Y-8600000D01*
X16528796Y-8600000D01*
X16583634Y-8605401D01*
X16583634Y-8605401D01*
G37*
G36*
X4083634Y-8605401D02*
G01*
X4134001Y-8620680D01*
X4180427Y-8645495D01*
X4221115Y-8678885D01*
X4254505Y-8719573D01*
X4279320Y-8765999D01*
X4294599Y-8816366D01*
X4300000Y-8871204D01*
X4300000Y-9503796D01*
X4294599Y-9558634D01*
X4279320Y-9609001D01*
X4254505Y-9655427D01*
X4221115Y-9696115D01*
X4180427Y-9729505D01*
X4134001Y-9754320D01*
X4083634Y-9769599D01*
X4028796Y-9775000D01*
X2971204Y-9775000D01*
X2916366Y-9769599D01*
X2865999Y-9754320D01*
X2819573Y-9729505D01*
X2778885Y-9696115D01*
X2745495Y-9655427D01*
X2720680Y-9609001D01*
X2705401Y-9558634D01*
X2700000Y-9503796D01*
X2700000Y-8871204D01*
X2705401Y-8816366D01*
X2720680Y-8765999D01*
X2745495Y-8719573D01*
X2778885Y-8678885D01*
X2819573Y-8645495D01*
X2865999Y-8620680D01*
X2916366Y-8605401D01*
X2971204Y-8600000D01*
X4028796Y-8600000D01*
X4083634Y-8605401D01*
X4083634Y-8605401D01*
G37*
G36*
X13308634Y-6955401D02*
G01*
X13359001Y-6970680D01*
X13405427Y-6995495D01*
X13446115Y-7028885D01*
X13479505Y-7069573D01*
X13504320Y-7115999D01*
X13519599Y-7166366D01*
X13525000Y-7221204D01*
X13525000Y-8278796D01*
X13519599Y-8333634D01*
X13504320Y-8384001D01*
X13479505Y-8430427D01*
X13446115Y-8471115D01*
X13405427Y-8504505D01*
X13359001Y-8529320D01*
X13308634Y-8544599D01*
X13253796Y-8550000D01*
X12621204Y-8550000D01*
X12566366Y-8544599D01*
X12515999Y-8529320D01*
X12469573Y-8504505D01*
X12428885Y-8471115D01*
X12395495Y-8430427D01*
X12370680Y-8384001D01*
X12355401Y-8333634D01*
X12350000Y-8278796D01*
X12350000Y-7221204D01*
X12355401Y-7166366D01*
X12370680Y-7115999D01*
X12395495Y-7069573D01*
X12428885Y-7028885D01*
X12469573Y-6995495D01*
X12515999Y-6970680D01*
X12566366Y-6955401D01*
X12621204Y-6950000D01*
X13253796Y-6950000D01*
X13308634Y-6955401D01*
X13308634Y-6955401D01*
G37*
G36*
X11433634Y-6955401D02*
G01*
X11484001Y-6970680D01*
X11530427Y-6995495D01*
X11571115Y-7028885D01*
X11604505Y-7069573D01*
X11629320Y-7115999D01*
X11644599Y-7166366D01*
X11650000Y-7221204D01*
X11650000Y-8278796D01*
X11644599Y-8333634D01*
X11629320Y-8384001D01*
X11604505Y-8430427D01*
X11571115Y-8471115D01*
X11530427Y-8504505D01*
X11484001Y-8529320D01*
X11433634Y-8544599D01*
X11378796Y-8550000D01*
X10746204Y-8550000D01*
X10691366Y-8544599D01*
X10640999Y-8529320D01*
X10594573Y-8504505D01*
X10553885Y-8471115D01*
X10520495Y-8430427D01*
X10495680Y-8384001D01*
X10480401Y-8333634D01*
X10475000Y-8278796D01*
X10475000Y-7221204D01*
X10480401Y-7166366D01*
X10495680Y-7115999D01*
X10520495Y-7069573D01*
X10553885Y-7028885D01*
X10594573Y-6995495D01*
X10640999Y-6970680D01*
X10691366Y-6955401D01*
X10746204Y-6950000D01*
X11378796Y-6950000D01*
X11433634Y-6955401D01*
X11433634Y-6955401D01*
G37*
G36*
X8183634Y-6955401D02*
G01*
X8234001Y-6970680D01*
X8280427Y-6995495D01*
X8321115Y-7028885D01*
X8354505Y-7069573D01*
X8379320Y-7115999D01*
X8394599Y-7166366D01*
X8400000Y-7221204D01*
X8400000Y-8278796D01*
X8394599Y-8333634D01*
X8379320Y-8384001D01*
X8354505Y-8430427D01*
X8321115Y-8471115D01*
X8280427Y-8504505D01*
X8234001Y-8529320D01*
X8183634Y-8544599D01*
X8128796Y-8550000D01*
X7496204Y-8550000D01*
X7441366Y-8544599D01*
X7390999Y-8529320D01*
X7344573Y-8504505D01*
X7303885Y-8471115D01*
X7270495Y-8430427D01*
X7245680Y-8384001D01*
X7230401Y-8333634D01*
X7225000Y-8278796D01*
X7225000Y-7221204D01*
X7230401Y-7166366D01*
X7245680Y-7115999D01*
X7270495Y-7069573D01*
X7303885Y-7028885D01*
X7344573Y-6995495D01*
X7390999Y-6970680D01*
X7441366Y-6955401D01*
X7496204Y-6950000D01*
X8128796Y-6950000D01*
X8183634Y-6955401D01*
X8183634Y-6955401D01*
G37*
G36*
X10058634Y-6955401D02*
G01*
X10109001Y-6970680D01*
X10155427Y-6995495D01*
X10196115Y-7028885D01*
X10229505Y-7069573D01*
X10254320Y-7115999D01*
X10269599Y-7166366D01*
X10275000Y-7221204D01*
X10275000Y-8278796D01*
X10269599Y-8333634D01*
X10254320Y-8384001D01*
X10229505Y-8430427D01*
X10196115Y-8471115D01*
X10155427Y-8504505D01*
X10109001Y-8529320D01*
X10058634Y-8544599D01*
X10003796Y-8550000D01*
X9371204Y-8550000D01*
X9316366Y-8544599D01*
X9265999Y-8529320D01*
X9219573Y-8504505D01*
X9178885Y-8471115D01*
X9145495Y-8430427D01*
X9120680Y-8384001D01*
X9105401Y-8333634D01*
X9100000Y-8278796D01*
X9100000Y-7221204D01*
X9105401Y-7166366D01*
X9120680Y-7115999D01*
X9145495Y-7069573D01*
X9178885Y-7028885D01*
X9219573Y-6995495D01*
X9265999Y-6970680D01*
X9316366Y-6955401D01*
X9371204Y-6950000D01*
X10003796Y-6950000D01*
X10058634Y-6955401D01*
X10058634Y-6955401D01*
G37*
G36*
X4083634Y-6730401D02*
G01*
X4134001Y-6745680D01*
X4180427Y-6770495D01*
X4221115Y-6803885D01*
X4254505Y-6844573D01*
X4279320Y-6890999D01*
X4294599Y-6941366D01*
X4300000Y-6996204D01*
X4300000Y-7628796D01*
X4294599Y-7683634D01*
X4279320Y-7734001D01*
X4254505Y-7780427D01*
X4221115Y-7821115D01*
X4180427Y-7854505D01*
X4134001Y-7879320D01*
X4083634Y-7894599D01*
X4028796Y-7900000D01*
X2971204Y-7900000D01*
X2916366Y-7894599D01*
X2865999Y-7879320D01*
X2819573Y-7854505D01*
X2778885Y-7821115D01*
X2745495Y-7780427D01*
X2720680Y-7734001D01*
X2705401Y-7683634D01*
X2700000Y-7628796D01*
X2700000Y-6996204D01*
X2705401Y-6941366D01*
X2720680Y-6890999D01*
X2745495Y-6844573D01*
X2778885Y-6803885D01*
X2819573Y-6770495D01*
X2865999Y-6745680D01*
X2916366Y-6730401D01*
X2971204Y-6725000D01*
X4028796Y-6725000D01*
X4083634Y-6730401D01*
X4083634Y-6730401D01*
G37*
G36*
X16583634Y-6730401D02*
G01*
X16634001Y-6745680D01*
X16680427Y-6770495D01*
X16721115Y-6803885D01*
X16754505Y-6844573D01*
X16779320Y-6890999D01*
X16794599Y-6941366D01*
X16800000Y-6996204D01*
X16800000Y-7628796D01*
X16794599Y-7683634D01*
X16779320Y-7734001D01*
X16754505Y-7780427D01*
X16721115Y-7821115D01*
X16680427Y-7854505D01*
X16634001Y-7879320D01*
X16583634Y-7894599D01*
X16528796Y-7900000D01*
X15471204Y-7900000D01*
X15416366Y-7894599D01*
X15365999Y-7879320D01*
X15319573Y-7854505D01*
X15278885Y-7821115D01*
X15245495Y-7780427D01*
X15220680Y-7734001D01*
X15205401Y-7683634D01*
X15200000Y-7628796D01*
X15200000Y-6996204D01*
X15205401Y-6941366D01*
X15220680Y-6890999D01*
X15245495Y-6844573D01*
X15278885Y-6803885D01*
X15319573Y-6770495D01*
X15365999Y-6745680D01*
X15416366Y-6730401D01*
X15471204Y-6725000D01*
X16528796Y-6725000D01*
X16583634Y-6730401D01*
X16583634Y-6730401D01*
G37*
G36*
X14583634Y-5180401D02*
G01*
X14634001Y-5195680D01*
X14680427Y-5220495D01*
X14721115Y-5253885D01*
X14754505Y-5294573D01*
X14779320Y-5340999D01*
X14794599Y-5391366D01*
X14800000Y-5446204D01*
X14800000Y-6078796D01*
X14794599Y-6133634D01*
X14779320Y-6184001D01*
X14754505Y-6230427D01*
X14721115Y-6271115D01*
X14680427Y-6304505D01*
X14634001Y-6329320D01*
X14583634Y-6344599D01*
X14528796Y-6350000D01*
X13471204Y-6350000D01*
X13416366Y-6344599D01*
X13365999Y-6329320D01*
X13319573Y-6304505D01*
X13278885Y-6271115D01*
X13245495Y-6230427D01*
X13220680Y-6184001D01*
X13205401Y-6133634D01*
X13200000Y-6078796D01*
X13200000Y-5446204D01*
X13205401Y-5391366D01*
X13220680Y-5340999D01*
X13245495Y-5294573D01*
X13278885Y-5253885D01*
X13319573Y-5220495D01*
X13365999Y-5195680D01*
X13416366Y-5180401D01*
X13471204Y-5175000D01*
X14528796Y-5175000D01*
X14583634Y-5180401D01*
X14583634Y-5180401D01*
G37*
G36*
X12583634Y-5180401D02*
G01*
X12634001Y-5195680D01*
X12680427Y-5220495D01*
X12721115Y-5253885D01*
X12754505Y-5294573D01*
X12779320Y-5340999D01*
X12794599Y-5391366D01*
X12800000Y-5446204D01*
X12800000Y-6078796D01*
X12794599Y-6133634D01*
X12779320Y-6184001D01*
X12754505Y-6230427D01*
X12721115Y-6271115D01*
X12680427Y-6304505D01*
X12634001Y-6329320D01*
X12583634Y-6344599D01*
X12528796Y-6350000D01*
X11471204Y-6350000D01*
X11416366Y-6344599D01*
X11365999Y-6329320D01*
X11319573Y-6304505D01*
X11278885Y-6271115D01*
X11245495Y-6230427D01*
X11220680Y-6184001D01*
X11205401Y-6133634D01*
X11200000Y-6078796D01*
X11200000Y-5446204D01*
X11205401Y-5391366D01*
X11220680Y-5340999D01*
X11245495Y-5294573D01*
X11278885Y-5253885D01*
X11319573Y-5220495D01*
X11365999Y-5195680D01*
X11416366Y-5180401D01*
X11471204Y-5175000D01*
X12528796Y-5175000D01*
X12583634Y-5180401D01*
X12583634Y-5180401D01*
G37*
G36*
X16583634Y-5180401D02*
G01*
X16634001Y-5195680D01*
X16680427Y-5220495D01*
X16721115Y-5253885D01*
X16754505Y-5294573D01*
X16779320Y-5340999D01*
X16794599Y-5391366D01*
X16800000Y-5446204D01*
X16800000Y-6078796D01*
X16794599Y-6133634D01*
X16779320Y-6184001D01*
X16754505Y-6230427D01*
X16721115Y-6271115D01*
X16680427Y-6304505D01*
X16634001Y-6329320D01*
X16583634Y-6344599D01*
X16528796Y-6350000D01*
X15471204Y-6350000D01*
X15416366Y-6344599D01*
X15365999Y-6329320D01*
X15319573Y-6304505D01*
X15278885Y-6271115D01*
X15245495Y-6230427D01*
X15220680Y-6184001D01*
X15205401Y-6133634D01*
X15200000Y-6078796D01*
X15200000Y-5446204D01*
X15205401Y-5391366D01*
X15220680Y-5340999D01*
X15245495Y-5294573D01*
X15278885Y-5253885D01*
X15319573Y-5220495D01*
X15365999Y-5195680D01*
X15416366Y-5180401D01*
X15471204Y-5175000D01*
X16528796Y-5175000D01*
X16583634Y-5180401D01*
X16583634Y-5180401D01*
G37*
G36*
X1683634Y-4705401D02*
G01*
X1734001Y-4720680D01*
X1780427Y-4745495D01*
X1821115Y-4778885D01*
X1854505Y-4819573D01*
X1879320Y-4865999D01*
X1894599Y-4916366D01*
X1900000Y-4971204D01*
X1900000Y-6028796D01*
X1894599Y-6083634D01*
X1879320Y-6134001D01*
X1854505Y-6180427D01*
X1821115Y-6221115D01*
X1780427Y-6254505D01*
X1734001Y-6279320D01*
X1683634Y-6294599D01*
X1628796Y-6300000D01*
X996204Y-6300000D01*
X941366Y-6294599D01*
X890999Y-6279320D01*
X844573Y-6254505D01*
X803885Y-6221115D01*
X770495Y-6180427D01*
X745680Y-6134001D01*
X730401Y-6083634D01*
X725000Y-6028796D01*
X725000Y-4971204D01*
X730401Y-4916366D01*
X745680Y-4865999D01*
X770495Y-4819573D01*
X803885Y-4778885D01*
X844573Y-4745495D01*
X890999Y-4720680D01*
X941366Y-4705401D01*
X996204Y-4700000D01*
X1628796Y-4700000D01*
X1683634Y-4705401D01*
X1683634Y-4705401D01*
G37*
G36*
X3558634Y-4705401D02*
G01*
X3609001Y-4720680D01*
X3655427Y-4745495D01*
X3696115Y-4778885D01*
X3729505Y-4819573D01*
X3754320Y-4865999D01*
X3769599Y-4916366D01*
X3775000Y-4971204D01*
X3775000Y-6028796D01*
X3769599Y-6083634D01*
X3754320Y-6134001D01*
X3729505Y-6180427D01*
X3696115Y-6221115D01*
X3655427Y-6254505D01*
X3609001Y-6279320D01*
X3558634Y-6294599D01*
X3503796Y-6300000D01*
X2871204Y-6300000D01*
X2816366Y-6294599D01*
X2765999Y-6279320D01*
X2719573Y-6254505D01*
X2678885Y-6221115D01*
X2645495Y-6180427D01*
X2620680Y-6134001D01*
X2605401Y-6083634D01*
X2600000Y-6028796D01*
X2600000Y-4971204D01*
X2605401Y-4916366D01*
X2620680Y-4865999D01*
X2645495Y-4819573D01*
X2678885Y-4778885D01*
X2719573Y-4745495D01*
X2765999Y-4720680D01*
X2816366Y-4705401D01*
X2871204Y-4700000D01*
X3503796Y-4700000D01*
X3558634Y-4705401D01*
X3558634Y-4705401D01*
G37*
G36*
X18350000Y-6200000D02*
G01*
X17650000Y-6200000D01*
X17650000Y-5500000D01*
X18350000Y-5500000D01*
X18350000Y-6200000D01*
X18350000Y-6200000D01*
G37*
G36*
X10775000Y-5800000D02*
G01*
X9125000Y-5800000D01*
X9125000Y-3200000D01*
X10775000Y-3200000D01*
X10775000Y-5800000D01*
X10775000Y-5800000D01*
G37*
G36*
X6375000Y-5800000D02*
G01*
X4725000Y-5800000D01*
X4725000Y-3200000D01*
X6375000Y-3200000D01*
X6375000Y-5800000D01*
X6375000Y-5800000D01*
G37*
G36*
X12583634Y-3305401D02*
G01*
X12634001Y-3320680D01*
X12680427Y-3345495D01*
X12721115Y-3378885D01*
X12754505Y-3419573D01*
X12779320Y-3465999D01*
X12794599Y-3516366D01*
X12800000Y-3571204D01*
X12800000Y-4203796D01*
X12794599Y-4258634D01*
X12779320Y-4309001D01*
X12754505Y-4355427D01*
X12721115Y-4396115D01*
X12680427Y-4429505D01*
X12634001Y-4454320D01*
X12583634Y-4469599D01*
X12528796Y-4475000D01*
X11471204Y-4475000D01*
X11416366Y-4469599D01*
X11365999Y-4454320D01*
X11319573Y-4429505D01*
X11278885Y-4396115D01*
X11245495Y-4355427D01*
X11220680Y-4309001D01*
X11205401Y-4258634D01*
X11200000Y-4203796D01*
X11200000Y-3571204D01*
X11205401Y-3516366D01*
X11220680Y-3465999D01*
X11245495Y-3419573D01*
X11278885Y-3378885D01*
X11319573Y-3345495D01*
X11365999Y-3320680D01*
X11416366Y-3305401D01*
X11471204Y-3300000D01*
X12528796Y-3300000D01*
X12583634Y-3305401D01*
X12583634Y-3305401D01*
G37*
G36*
X14583634Y-3305401D02*
G01*
X14634001Y-3320680D01*
X14680427Y-3345495D01*
X14721115Y-3378885D01*
X14754505Y-3419573D01*
X14779320Y-3465999D01*
X14794599Y-3516366D01*
X14800000Y-3571204D01*
X14800000Y-4203796D01*
X14794599Y-4258634D01*
X14779320Y-4309001D01*
X14754505Y-4355427D01*
X14721115Y-4396115D01*
X14680427Y-4429505D01*
X14634001Y-4454320D01*
X14583634Y-4469599D01*
X14528796Y-4475000D01*
X13471204Y-4475000D01*
X13416366Y-4469599D01*
X13365999Y-4454320D01*
X13319573Y-4429505D01*
X13278885Y-4396115D01*
X13245495Y-4355427D01*
X13220680Y-4309001D01*
X13205401Y-4258634D01*
X13200000Y-4203796D01*
X13200000Y-3571204D01*
X13205401Y-3516366D01*
X13220680Y-3465999D01*
X13245495Y-3419573D01*
X13278885Y-3378885D01*
X13319573Y-3345495D01*
X13365999Y-3320680D01*
X13416366Y-3305401D01*
X13471204Y-3300000D01*
X14528796Y-3300000D01*
X14583634Y-3305401D01*
X14583634Y-3305401D01*
G37*
G36*
X16583634Y-3305401D02*
G01*
X16634001Y-3320680D01*
X16680427Y-3345495D01*
X16721115Y-3378885D01*
X16754505Y-3419573D01*
X16779320Y-3465999D01*
X16794599Y-3516366D01*
X16800000Y-3571204D01*
X16800000Y-4203796D01*
X16794599Y-4258634D01*
X16779320Y-4309001D01*
X16754505Y-4355427D01*
X16721115Y-4396115D01*
X16680427Y-4429505D01*
X16634001Y-4454320D01*
X16583634Y-4469599D01*
X16528796Y-4475000D01*
X15471204Y-4475000D01*
X15416366Y-4469599D01*
X15365999Y-4454320D01*
X15319573Y-4429505D01*
X15278885Y-4396115D01*
X15245495Y-4355427D01*
X15220680Y-4309001D01*
X15205401Y-4258634D01*
X15200000Y-4203796D01*
X15200000Y-3571204D01*
X15205401Y-3516366D01*
X15220680Y-3465999D01*
X15245495Y-3419573D01*
X15278885Y-3378885D01*
X15319573Y-3345495D01*
X15365999Y-3320680D01*
X15416366Y-3305401D01*
X15471204Y-3300000D01*
X16528796Y-3300000D01*
X16583634Y-3305401D01*
X16583634Y-3305401D01*
G37*
G36*
X18350000Y-4000000D02*
G01*
X17650000Y-4000000D01*
X17650000Y-3300000D01*
X18350000Y-3300000D01*
X18350000Y-4000000D01*
X18350000Y-4000000D01*
G37*
G36*
X2083634Y-2605401D02*
G01*
X2134001Y-2620680D01*
X2180427Y-2645495D01*
X2221115Y-2678885D01*
X2254505Y-2719573D01*
X2279320Y-2765999D01*
X2294599Y-2816366D01*
X2300000Y-2871204D01*
X2300000Y-3503796D01*
X2294599Y-3558634D01*
X2279320Y-3609001D01*
X2254505Y-3655427D01*
X2221115Y-3696115D01*
X2180427Y-3729505D01*
X2134001Y-3754320D01*
X2083634Y-3769599D01*
X2028796Y-3775000D01*
X971204Y-3775000D01*
X916366Y-3769599D01*
X865999Y-3754320D01*
X819573Y-3729505D01*
X778885Y-3696115D01*
X745495Y-3655427D01*
X720680Y-3609001D01*
X705401Y-3558634D01*
X700000Y-3503796D01*
X700000Y-2871204D01*
X705401Y-2816366D01*
X720680Y-2765999D01*
X745495Y-2719573D01*
X778885Y-2678885D01*
X819573Y-2645495D01*
X865999Y-2620680D01*
X916366Y-2605401D01*
X971204Y-2600000D01*
X2028796Y-2600000D01*
X2083634Y-2605401D01*
X2083634Y-2605401D01*
G37*
G36*
X4083634Y-2605401D02*
G01*
X4134001Y-2620680D01*
X4180427Y-2645495D01*
X4221115Y-2678885D01*
X4254505Y-2719573D01*
X4279320Y-2765999D01*
X4294599Y-2816366D01*
X4300000Y-2871204D01*
X4300000Y-3503796D01*
X4294599Y-3558634D01*
X4279320Y-3609001D01*
X4254505Y-3655427D01*
X4221115Y-3696115D01*
X4180427Y-3729505D01*
X4134001Y-3754320D01*
X4083634Y-3769599D01*
X4028796Y-3775000D01*
X2971204Y-3775000D01*
X2916366Y-3769599D01*
X2865999Y-3754320D01*
X2819573Y-3729505D01*
X2778885Y-3696115D01*
X2745495Y-3655427D01*
X2720680Y-3609001D01*
X2705401Y-3558634D01*
X2700000Y-3503796D01*
X2700000Y-2871204D01*
X2705401Y-2816366D01*
X2720680Y-2765999D01*
X2745495Y-2719573D01*
X2778885Y-2678885D01*
X2819573Y-2645495D01*
X2865999Y-2620680D01*
X2916366Y-2605401D01*
X2971204Y-2600000D01*
X4028796Y-2600000D01*
X4083634Y-2605401D01*
X4083634Y-2605401D01*
G37*
G36*
X14433634Y-1205401D02*
G01*
X14484001Y-1220680D01*
X14530427Y-1245495D01*
X14571115Y-1278885D01*
X14604505Y-1319573D01*
X14629320Y-1365999D01*
X14644599Y-1416366D01*
X14650000Y-1471204D01*
X14650000Y-2528796D01*
X14644599Y-2583634D01*
X14629320Y-2634001D01*
X14604505Y-2680427D01*
X14571115Y-2721115D01*
X14530427Y-2754505D01*
X14484001Y-2779320D01*
X14433634Y-2794599D01*
X14378796Y-2800000D01*
X13746204Y-2800000D01*
X13691366Y-2794599D01*
X13640999Y-2779320D01*
X13594573Y-2754505D01*
X13553885Y-2721115D01*
X13520495Y-2680427D01*
X13495680Y-2634001D01*
X13480401Y-2583634D01*
X13475000Y-2528796D01*
X13475000Y-1471204D01*
X13480401Y-1416366D01*
X13495680Y-1365999D01*
X13520495Y-1319573D01*
X13553885Y-1278885D01*
X13594573Y-1245495D01*
X13640999Y-1220680D01*
X13691366Y-1205401D01*
X13746204Y-1200000D01*
X14378796Y-1200000D01*
X14433634Y-1205401D01*
X14433634Y-1205401D01*
G37*
G36*
X16308634Y-1205401D02*
G01*
X16359001Y-1220680D01*
X16405427Y-1245495D01*
X16446115Y-1278885D01*
X16479505Y-1319573D01*
X16504320Y-1365999D01*
X16519599Y-1416366D01*
X16525000Y-1471204D01*
X16525000Y-2528796D01*
X16519599Y-2583634D01*
X16504320Y-2634001D01*
X16479505Y-2680427D01*
X16446115Y-2721115D01*
X16405427Y-2754505D01*
X16359001Y-2779320D01*
X16308634Y-2794599D01*
X16253796Y-2800000D01*
X15621204Y-2800000D01*
X15566366Y-2794599D01*
X15515999Y-2779320D01*
X15469573Y-2754505D01*
X15428885Y-2721115D01*
X15395495Y-2680427D01*
X15370680Y-2634001D01*
X15355401Y-2583634D01*
X15350000Y-2528796D01*
X15350000Y-1471204D01*
X15355401Y-1416366D01*
X15370680Y-1365999D01*
X15395495Y-1319573D01*
X15428885Y-1278885D01*
X15469573Y-1245495D01*
X15515999Y-1220680D01*
X15566366Y-1205401D01*
X15621204Y-1200000D01*
X16253796Y-1200000D01*
X16308634Y-1205401D01*
X16308634Y-1205401D01*
G37*
G36*
X8433634Y-705401D02*
G01*
X8484001Y-720680D01*
X8530427Y-745495D01*
X8571115Y-778885D01*
X8604505Y-819573D01*
X8629320Y-865999D01*
X8644599Y-916366D01*
X8650000Y-971204D01*
X8650000Y-2028796D01*
X8644599Y-2083634D01*
X8629320Y-2134001D01*
X8604505Y-2180427D01*
X8571115Y-2221115D01*
X8530427Y-2254505D01*
X8484001Y-2279320D01*
X8433634Y-2294599D01*
X8378796Y-2300000D01*
X7746204Y-2300000D01*
X7691366Y-2294599D01*
X7640999Y-2279320D01*
X7594573Y-2254505D01*
X7553885Y-2221115D01*
X7520495Y-2180427D01*
X7495680Y-2134001D01*
X7480401Y-2083634D01*
X7475000Y-2028796D01*
X7475000Y-971204D01*
X7480401Y-916366D01*
X7495680Y-865999D01*
X7520495Y-819573D01*
X7553885Y-778885D01*
X7594573Y-745495D01*
X7640999Y-720680D01*
X7691366Y-705401D01*
X7746204Y-700000D01*
X8378796Y-700000D01*
X8433634Y-705401D01*
X8433634Y-705401D01*
G37*
G36*
X10308634Y-705401D02*
G01*
X10359001Y-720680D01*
X10405427Y-745495D01*
X10446115Y-778885D01*
X10479505Y-819573D01*
X10504320Y-865999D01*
X10519599Y-916366D01*
X10525000Y-971204D01*
X10525000Y-2028796D01*
X10519599Y-2083634D01*
X10504320Y-2134001D01*
X10479505Y-2180427D01*
X10446115Y-2221115D01*
X10405427Y-2254505D01*
X10359001Y-2279320D01*
X10308634Y-2294599D01*
X10253796Y-2300000D01*
X9621204Y-2300000D01*
X9566366Y-2294599D01*
X9515999Y-2279320D01*
X9469573Y-2254505D01*
X9428885Y-2221115D01*
X9395495Y-2180427D01*
X9370680Y-2134001D01*
X9355401Y-2083634D01*
X9350000Y-2028796D01*
X9350000Y-971204D01*
X9355401Y-916366D01*
X9370680Y-865999D01*
X9395495Y-819573D01*
X9428885Y-778885D01*
X9469573Y-745495D01*
X9515999Y-720680D01*
X9566366Y-705401D01*
X9621204Y-700000D01*
X10253796Y-700000D01*
X10308634Y-705401D01*
X10308634Y-705401D01*
G37*
G36*
X4083634Y-730401D02*
G01*
X4134001Y-745680D01*
X4180427Y-770495D01*
X4221115Y-803885D01*
X4254505Y-844573D01*
X4279320Y-890999D01*
X4294599Y-941366D01*
X4300000Y-996204D01*
X4300000Y-1628796D01*
X4294599Y-1683634D01*
X4279320Y-1734001D01*
X4254505Y-1780427D01*
X4221115Y-1821115D01*
X4180427Y-1854505D01*
X4134001Y-1879320D01*
X4083634Y-1894599D01*
X4028796Y-1900000D01*
X2971204Y-1900000D01*
X2916366Y-1894599D01*
X2865999Y-1879320D01*
X2819573Y-1854505D01*
X2778885Y-1821115D01*
X2745495Y-1780427D01*
X2720680Y-1734001D01*
X2705401Y-1683634D01*
X2700000Y-1628796D01*
X2700000Y-996204D01*
X2705401Y-941366D01*
X2720680Y-890999D01*
X2745495Y-844573D01*
X2778885Y-803885D01*
X2819573Y-770495D01*
X2865999Y-745680D01*
X2916366Y-730401D01*
X2971204Y-725000D01*
X4028796Y-725000D01*
X4083634Y-730401D01*
X4083634Y-730401D01*
G37*
G36*
X2083634Y-730401D02*
G01*
X2134001Y-745680D01*
X2180427Y-770495D01*
X2221115Y-803885D01*
X2254505Y-844573D01*
X2279320Y-890999D01*
X2294599Y-941366D01*
X2300000Y-996204D01*
X2300000Y-1628796D01*
X2294599Y-1683634D01*
X2279320Y-1734001D01*
X2254505Y-1780427D01*
X2221115Y-1821115D01*
X2180427Y-1854505D01*
X2134001Y-1879320D01*
X2083634Y-1894599D01*
X2028796Y-1900000D01*
X971204Y-1900000D01*
X916366Y-1894599D01*
X865999Y-1879320D01*
X819573Y-1854505D01*
X778885Y-1821115D01*
X745495Y-1780427D01*
X720680Y-1734001D01*
X705401Y-1683634D01*
X700000Y-1628796D01*
X700000Y-996204D01*
X705401Y-941366D01*
X720680Y-890999D01*
X745495Y-844573D01*
X778885Y-803885D01*
X819573Y-770495D01*
X865999Y-745680D01*
X916366Y-730401D01*
X971204Y-725000D01*
X2028796Y-725000D01*
X2083634Y-730401D01*
X2083634Y-730401D01*
G37*
M02*
