G04 #@! TF.GenerationSoftware,KiCad,Pcbnew,5.1.4-e60b266~84~ubuntu18.04.1*
G04 #@! TF.CreationDate,2019-10-22T14:27:34+02:00*
G04 #@! TF.ProjectId,bug,6275672e-6b69-4636-9164-5f7063625858,rev?*
G04 #@! TF.SameCoordinates,PX2faf080PY2faf080*
G04 #@! TF.FileFunction,Soldermask,Bot*
G04 #@! TF.FilePolarity,Negative*
%FSLAX46Y46*%
G04 Gerber Fmt 4.6, Leading zero omitted, Abs format (unit mm)*
G04 Created by KiCad (PCBNEW 5.1.4-e60b266~84~ubuntu18.04.1) date 2019-10-22 14:27:34*
%MOMM*%
%LPD*%
G04 APERTURE LIST*
%ADD10C,0.100000*%
G04 APERTURE END LIST*
D10*
G36*
X25425638Y-17415916D02*
G01*
X25494755Y-17436883D01*
X25632990Y-17478816D01*
X25824081Y-17580956D01*
X25824082Y-17580957D01*
X25824084Y-17580958D01*
X25991581Y-17718419D01*
X26106422Y-17858353D01*
X26129044Y-17885918D01*
X26231184Y-18077011D01*
X26273117Y-18215246D01*
X26294084Y-18284362D01*
X26294084Y-18284364D01*
X26310000Y-18445963D01*
X26310000Y-19054038D01*
X26294084Y-19215637D01*
X26231184Y-19422990D01*
X26129044Y-19614081D01*
X26129042Y-19614084D01*
X25991581Y-19781581D01*
X25824084Y-19919042D01*
X25824082Y-19919043D01*
X25824081Y-19919044D01*
X25632989Y-20021184D01*
X25494754Y-20063117D01*
X25425637Y-20084084D01*
X25210000Y-20105322D01*
X24994362Y-20084084D01*
X24925245Y-20063117D01*
X24787010Y-20021184D01*
X24595919Y-19919044D01*
X24595918Y-19919043D01*
X24595916Y-19919042D01*
X24428419Y-19781581D01*
X24290958Y-19614084D01*
X24290956Y-19614081D01*
X24188816Y-19422989D01*
X24146883Y-19284754D01*
X24125916Y-19215637D01*
X24110000Y-19054035D01*
X24110000Y-18445964D01*
X24125916Y-18284362D01*
X24140556Y-18236103D01*
X24188815Y-18077012D01*
X24290958Y-17885918D01*
X24290959Y-17885916D01*
X24428420Y-17718419D01*
X24595917Y-17580958D01*
X24595919Y-17580957D01*
X24595920Y-17580956D01*
X24787011Y-17478816D01*
X24925246Y-17436883D01*
X24994363Y-17415916D01*
X25210000Y-17394678D01*
X25425638Y-17415916D01*
X25425638Y-17415916D01*
G37*
G36*
X27965638Y-17415916D02*
G01*
X28034755Y-17436883D01*
X28172990Y-17478816D01*
X28364081Y-17580956D01*
X28364082Y-17580957D01*
X28364084Y-17580958D01*
X28531581Y-17718419D01*
X28646422Y-17858353D01*
X28669044Y-17885918D01*
X28771184Y-18077011D01*
X28813117Y-18215246D01*
X28834084Y-18284362D01*
X28834084Y-18284364D01*
X28850000Y-18445963D01*
X28850000Y-19054038D01*
X28834084Y-19215637D01*
X28771184Y-19422990D01*
X28669044Y-19614081D01*
X28669042Y-19614084D01*
X28531581Y-19781581D01*
X28364084Y-19919042D01*
X28364082Y-19919043D01*
X28364081Y-19919044D01*
X28172989Y-20021184D01*
X28034754Y-20063117D01*
X27965637Y-20084084D01*
X27750000Y-20105322D01*
X27534362Y-20084084D01*
X27465245Y-20063117D01*
X27327010Y-20021184D01*
X27135919Y-19919044D01*
X27135918Y-19919043D01*
X27135916Y-19919042D01*
X26968419Y-19781581D01*
X26830958Y-19614084D01*
X26830956Y-19614081D01*
X26728816Y-19422989D01*
X26686883Y-19284754D01*
X26665916Y-19215637D01*
X26650000Y-19054035D01*
X26650000Y-18445964D01*
X26665916Y-18284362D01*
X26680556Y-18236103D01*
X26728815Y-18077012D01*
X26830958Y-17885918D01*
X26830959Y-17885916D01*
X26968420Y-17718419D01*
X27135917Y-17580958D01*
X27135919Y-17580957D01*
X27135920Y-17580956D01*
X27327011Y-17478816D01*
X27465246Y-17436883D01*
X27534363Y-17415916D01*
X27750000Y-17394678D01*
X27965638Y-17415916D01*
X27965638Y-17415916D01*
G37*
G36*
X23465637Y-5665916D02*
G01*
X23534754Y-5686883D01*
X23672989Y-5728816D01*
X23864081Y-5830956D01*
X23864082Y-5830957D01*
X23864084Y-5830958D01*
X24031581Y-5968419D01*
X24169042Y-6135916D01*
X24169044Y-6135919D01*
X24271184Y-6327010D01*
X24313117Y-6465245D01*
X24334084Y-6534362D01*
X24350000Y-6695964D01*
X24350000Y-7304035D01*
X24334084Y-7465637D01*
X24313117Y-7534754D01*
X24271184Y-7672989D01*
X24169044Y-7864082D01*
X24169042Y-7864084D01*
X24031581Y-8031581D01*
X23864084Y-8169042D01*
X23864082Y-8169043D01*
X23864081Y-8169044D01*
X23672990Y-8271184D01*
X23534755Y-8313117D01*
X23465638Y-8334084D01*
X23250000Y-8355322D01*
X23034363Y-8334084D01*
X22965246Y-8313117D01*
X22827011Y-8271184D01*
X22635920Y-8169044D01*
X22635919Y-8169043D01*
X22635917Y-8169042D01*
X22468420Y-8031581D01*
X22330959Y-7864084D01*
X22295380Y-7797519D01*
X22228815Y-7672988D01*
X22165916Y-7465637D01*
X22150000Y-7304038D01*
X22150000Y-6695963D01*
X22165916Y-6534364D01*
X22165917Y-6534362D01*
X22186883Y-6465246D01*
X22228816Y-6327011D01*
X22330956Y-6135919D01*
X22330958Y-6135916D01*
X22468419Y-5968419D01*
X22635916Y-5830958D01*
X22635918Y-5830957D01*
X22635919Y-5830956D01*
X22827010Y-5728816D01*
X22965245Y-5686883D01*
X23034362Y-5665916D01*
X23250000Y-5644678D01*
X23465637Y-5665916D01*
X23465637Y-5665916D01*
G37*
G36*
X25965637Y-5665916D02*
G01*
X26034754Y-5686883D01*
X26172989Y-5728816D01*
X26364081Y-5830956D01*
X26364082Y-5830957D01*
X26364084Y-5830958D01*
X26531581Y-5968419D01*
X26669042Y-6135916D01*
X26669044Y-6135919D01*
X26771184Y-6327010D01*
X26813117Y-6465245D01*
X26834084Y-6534362D01*
X26850000Y-6695964D01*
X26850000Y-7304035D01*
X26834084Y-7465637D01*
X26813117Y-7534754D01*
X26771184Y-7672989D01*
X26669044Y-7864082D01*
X26669042Y-7864084D01*
X26531581Y-8031581D01*
X26364084Y-8169042D01*
X26364082Y-8169043D01*
X26364081Y-8169044D01*
X26172990Y-8271184D01*
X26034755Y-8313117D01*
X25965638Y-8334084D01*
X25750000Y-8355322D01*
X25534363Y-8334084D01*
X25465246Y-8313117D01*
X25327011Y-8271184D01*
X25135920Y-8169044D01*
X25135919Y-8169043D01*
X25135917Y-8169042D01*
X24968420Y-8031581D01*
X24830959Y-7864084D01*
X24795380Y-7797519D01*
X24728815Y-7672988D01*
X24665916Y-7465637D01*
X24650000Y-7304038D01*
X24650000Y-6695963D01*
X24665916Y-6534364D01*
X24665917Y-6534362D01*
X24686883Y-6465246D01*
X24728816Y-6327011D01*
X24830956Y-6135919D01*
X24830958Y-6135916D01*
X24968419Y-5968419D01*
X25135916Y-5830958D01*
X25135918Y-5830957D01*
X25135919Y-5830956D01*
X25327010Y-5728816D01*
X25465245Y-5686883D01*
X25534362Y-5665916D01*
X25750000Y-5644678D01*
X25965637Y-5665916D01*
X25965637Y-5665916D01*
G37*
M02*
